<svg width="281" height="53" xmlns="http://www.w3.org/2000/svg" xmlns:xlink="http://www.w3.org/1999/xlink" xml:space="preserve" overflow="hidden"><g transform="translate(-732 -173)"><g><g><g><g><path d="M822.285 190.841C822.842 190.847 823.028 190.226 823.62 189.926 823.923 189.761 824.403 189.809 824.788 189.59 825.768 189.027 825.828 187.922 827.117 187.761 828.002 187.647 828.805 188.059 829.7 188.34 829.813 189.472 829.232 190.356 828.704 191.01 828.236 191.568 827.472 192.369 826.701 192.671 825.991 192.942 825.124 192.811 824.366 193.084 824.033 193.208 823.705 193.563 823.284 193.747 822.753 193.994 822.133 194.007 821.784 194.256 820.827 194.933 820.469 197.516 820.12 198.831 819.391 201.536 818.404 204.566 819.2 207.572 821.733 207.664 823.555 206.591 825.199 205.578 825.677 205.282 826.514 204.61 826.866 204.576 827.764 204.489 828.744 205.455 828.784 206.159 828.846 207.244 827.116 209.123 826.371 209.401 825.871 209.592 825.133 209.506 824.365 209.656 821.784 210.164 818.783 212.68 816.62 210.488 816.398 210.01 816.503 209.563 816.201 208.991 815.969 208.538 815.464 208.324 815.37 207.902 815.29 207.542 815.494 207.037 815.535 206.495 815.609 205.586 815.517 204.443 815.618 203.579 815.711 202.821 815.995 202.1 816.037 201.411 816.063 200.964 815.933 200.488 815.954 200.079 815.998 199.017 816.471 197.903 816.621 196.751 817.055 193.385 817.203 189.782 818.038 186.673 818.307 185.664 819.003 184.244 818.62 182.929 818.453 182.366 817.807 181.982 817.788 181.514 817.763 181.056 818.183 180.346 818.701 180.346 819.232 180.344 819.49 180.6 819.955 180.847 821.727 181.79 823.118 182.768 822.869 185.762 822.699 187.774 821.002 189.422 822.285 190.841Z" fill="#00366F" fill-rule="evenodd" fill-opacity="1"/><path d="M808.618 182.268C809.575 182.247 809.556 183.043 810.204 184.094 810.914 185.248 811.402 186.066 811.536 187.761 811.628 188.865 811.485 190.084 811.536 191.253 811.572 192.009 811.78 192.774 811.788 193.421 811.789 193.84 811.617 194.283 811.619 194.666 811.627 195.442 812.116 196.499 811.788 197.163 811.814 197.503 812.127 197.547 812.204 197.833 812.28 198.278 811.904 198.812 811.954 199.416 811.985 199.8 812.271 200.062 812.286 200.413 812.298 200.832 812.005 201.231 811.954 201.659 811.891 202.186 812.053 202.812 811.954 203.494 811.831 204.388 811.416 205.315 811.371 206.159 811.349 206.591 811.461 207.065 811.455 207.487 811.413 210.316 809.297 213.299 807.124 211.736 806.86 210.906 807.306 209.853 807.036 208.991 806.203 209.21 806.003 210.2 805.453 210.819 804.378 212.025 801.818 213.382 801.122 210.819 800.679 209.194 801.685 207.868 801.871 206.159 802.004 204.944 802.125 203.362 802.039 202.165 802.004 201.686 801.846 201.261 801.871 200.831 801.965 199.093 802.965 198.41 802.621 197.084 802.31 195.882 801.044 195.923 801.204 194.419 803.29 193.107 805.368 194.739 806.952 195.417 807.729 194.168 807.276 192.656 807.288 191.089 807.293 190.107 807.686 188.938 807.869 187.844 808.053 186.733 808.36 185.489 808.37 184.512 808.378 183.615 807.899 182.831 808.618 182.268ZM805.124 205.492C806.204 204.741 808.44 202.779 807.124 200.658 805.901 201.717 805.041 203.135 805.124 205.492Z" fill="#00366F" fill-rule="evenodd" fill-opacity="1"/><path d="M884.045 202.579C885.774 202.71 891.904 199.168 892.463 202.742 892.68 204.144 890.762 206.082 889.377 206.159 888.416 206.211 887.527 205.774 886.631 205.992 886.229 206.083 885.986 206.456 885.629 206.573 885.002 206.778 884.182 206.508 883.801 207.24 883.526 207.29 883.412 207.182 883.217 207.157 882.715 207.549 882.041 207.757 881.545 208.15 880.412 208.185 879.285 208.227 878.797 208.903 877.012 208.986 875.614 209.599 873.97 209.074 873.548 208.94 873.259 208.583 872.802 208.407 871.701 207.978 870.407 208.144 869.555 207.323 869.863 205.638 871.494 205.992 873.302 205.578 874.661 205.258 875.616 204.304 877.462 204.405 879.53 201.063 882.575 198.697 883.464 194.168 882.454 194.009 881.431 194.03 880.462 194.418 880.153 194.545 879.95 194.905 879.632 194.998 879.234 195.116 878.775 194.87 878.214 194.833 877.648 194.795 877.087 195.026 876.71 194.998 875.814 194.94 874.461 194.206 874.632 193.006 875.493 192.142 876.872 192.585 878.05 192.254 878.39 192.159 878.611 191.764 879.05 191.669 879.292 191.62 879.632 191.725 879.884 191.669 880.363 191.561 880.632 191.159 881.128 190.92 881.423 190.788 881.952 190.681 882.38 190.504 883.474 190.062 884.624 189.626 885.712 189.177 886.228 188.694 886.788 188.249 887.462 187.927 889.45 188.385 892.784 190.096 891.296 192.254 890.769 193.011 889.691 193.563 889.046 194.336 888.357 195.154 887.81 196.031 887.208 196.834 886.845 197.325 886.595 197.672 886.378 198.17 886.175 198.638 886.13 199.179 885.88 199.749 885.404 200.827 884.402 201.574 884.045 202.579Z" fill="#00366F" fill-rule="evenodd" fill-opacity="1"/><path d="M958.98 192.585C960.486 192.562 960.548 190.311 961.896 190.007 962.851 189.792 964.753 190.687 964.808 191.506 964.853 192.074 963.747 192.921 963.228 193.255 961.794 194.178 960.556 194.672 959.728 196.17 959.062 196.306 958.632 196.682 958.144 196.999 957.886 197.588 958.089 198.046 957.978 198.498 957.867 198.952 957.488 199.207 957.394 199.578 957.261 200.117 957.367 200.897 957.228 201.498 956.31 205.449 953.296 210.827 949.812 212.234 949.386 212.407 948.785 212.58 948.398 212.651 947.474 212.818 944.453 212.904 944.396 211.902 944.357 211.216 946.693 210.316 947.312 209.903 949.406 208.512 950.742 206.922 952.062 204.91 952.693 203.949 953.496 202.931 953.478 201.498 952.363 201.538 952.273 202.685 951.562 203.245 951.218 203.52 950.525 203.621 950.064 203.996 949.722 204.263 949.597 204.803 949.228 204.91 948.499 205.126 947.564 204.673 947.146 204.405 946.599 204.06 946.029 203.412 945.48 202.826 944.937 202.245 944.115 201.583 944.314 200.747 945.753 200.6 946.589 199.851 947.98 199.667 948.947 198.718 950.675 198.528 951.394 197.334 952.953 197.064 954.519 196.216 954.896 194.751 955.316 193.107 954.912 190.015 955.06 187.762 955.115 186.955 955.257 185.185 955.146 184.344 955.097 183.989 954.736 183.668 954.642 183.179 954.396 181.842 954.824 180.383 955.308 179.602 956.91 180.268 958.294 182.529 959.312 183.847 959.496 187.07 958.299 189.869 958.98 192.585Z" fill="#00366F" fill-rule="evenodd" fill-opacity="1"/><path d="M967.391 207.572C968.704 207.485 969.532 207.877 970.227 208.407 970.248 209.315 969.756 209.709 969.311 210.155 966.729 210.018 966.422 212.16 963.815 211.981 962.065 211.028 961.87 208.348 960.897 206.073 960.524 205.207 960.124 204.443 959.815 203.742 959.409 202.821 959.262 202.04 958.981 201.161 958.807 200.628 957.776 199.207 958.897 198.915 960.342 198.528 960.639 201.023 961.061 201.832 961.368 202.414 961.987 202.71 962.399 203.245 962.829 203.818 962.985 204.598 963.479 205.156 964.553 206.378 965.994 206.803 967.391 207.572Z" fill="#00366F" fill-rule="evenodd" fill-opacity="1"/><path d="M855.834 182.931C855.998 184.002 855.528 185.146 854.584 185.013 853.98 184.923 853.829 183.96 853.502 183.431 852.659 182.077 850.11 181.184 849.753 179.772 850.198 179.014 851.488 178.936 852.585 179.02 854.503 179.155 856.606 179.804 857.168 180.94 857.675 181.95 856.697 182.543 855.834 182.931Z" fill="#00366F" fill-rule="evenodd" fill-opacity="1"/><path d="M860.919 185.512C860.527 186.467 859.405 186.655 858.583 186.923 855.928 187.799 853.621 189.328 851.42 190.92 850.052 191.917 848.33 192.77 846.004 193.007 843.983 193.208 841.212 193.295 839.419 192.335 839.564 190.279 842.135 190.214 843.757 189.591 844.384 189.343 844.98 188.738 845.587 188.593 846.373 188.397 846.983 188.574 847.67 188.341 848.013 188.226 848.271 187.929 848.672 187.762 849.652 187.341 851.085 187.165 852.337 186.845 853.575 186.526 854.792 185.942 855.835 185.765 856.267 185.685 856.743 185.795 857.17 185.679 857.544 185.579 857.873 185.191 858.252 185.097 859.066 184.89 860.172 184.908 860.919 185.512Z" fill="#00366F" fill-rule="evenodd" fill-opacity="1"/><path d="M856.501 193.747C856.644 194.319 856.591 194.951 856.335 195.334 854.294 196.126 853.687 198.351 851.918 199.417 852.643 199.159 854.618 198.87 854.834 199.832 855.094 200.98 852.694 202.755 851.669 203.246 851.45 203.885 851.88 204.874 851.751 205.739 851.716 206.004 851.519 206.271 851.504 206.496 851.368 208.055 852.9 213.298 850.588 213.235 849.338 213.202 849.081 211.558 848.25 210.82 847.579 210.226 846.821 210.139 846.169 209.569 844.686 210.672 843.781 212.345 842.252 213.402 841.606 213.263 841.267 212.833 840.837 212.487 840.639 211.453 840.048 209.691 840.67 208.655 841.043 208.429 841.487 208.756 841.837 208.826 843.816 207.81 844.992 205.975 847.419 205.407 847.85 205.748 847.607 206.779 847.669 207.488 847.311 207.634 847.156 207.975 846.918 208.243 847.375 208.586 848.088 208.681 848.836 208.742 849.407 207.517 849.61 205.544 849.503 203.909 849.292 203.596 848.802 203.557 848.503 203.328 847.936 201.953 849.258 201.126 848.751 200.08 848.431 200.121 848.278 200.33 848.088 200.499 848.534 202.758 847.049 204.348 846.003 205.66 842.805 205.482 844.275 200.39 844.502 197.917 844.585 197.015 844.65 195.944 845.338 195.83 846.15 195.71 846.378 196.656 847.085 197 849.046 196.488 849.44 194.415 851.586 194.089 851.931 193.854 852.174 193.509 852.501 193.256 853.94 193.075 855.702 192.89 856.501 193.747Z" fill="#00366F" fill-rule="evenodd" fill-opacity="1"/><path d="M854.422 202.826C854.789 202.666 855.277 202.632 855.834 202.657 856.866 203.293 858.346 204.422 858.583 205.905 858.742 206.893 858.687 208.522 858.251 209.074 857.65 209.83 856.299 209.677 855.667 209.074 854.478 207.93 853.432 204.763 854.422 202.826Z" fill="#00366F" fill-rule="evenodd" fill-opacity="1"/><path d="M918.094 185.012C917.865 184.887 917.785 184.599 917.596 184.428 917.94 183.344 919.225 182.795 918.85 181.265 918.2 180.651 916.961 180.226 917.35 178.85 919.289 177.936 922.758 178.257 923.096 180.181 923.43 182.088 920.979 182.711 920.012 183.594 919.369 184.189 919.096 185.21 918.094 185.012Z" fill="#00366F" fill-rule="evenodd" fill-opacity="1"/><path d="M923.014 189.422C923.674 189.543 924.942 188.988 926.096 189.176 926.793 189.287 927.19 189.691 927.594 190.007 927.717 190.787 927.229 190.969 927.094 191.506 927.354 192.071 927.713 191.646 928.344 191.754 929.252 191.917 930.649 193.148 930.762 194.256 930.871 195.294 930.504 196.481 930.428 197.834 930.254 200.882 930.08 204.49 930.346 207.653 930.576 210.48 930.662 213.262 928.926 214.481 927.631 214.635 926.774 213.475 925.68 213.235 924.91 213.066 924.303 213.193 923.762 212.819 923.219 212.443 923.1 211.854 922.514 211.398 921.787 211.045 920.618 210.785 920.932 209.657 923.176 209.734 924.856 211.01 927.178 210.489 927.85 209.78 927.635 207.371 927.762 205.993 927.981 203.646 927.813 200.378 927.93 197.751 927.985 196.406 928.362 195.25 927.678 194.257 924.446 194.458 922.473 196.835 919.764 198.251 919.481 198.397 919.129 198.423 918.85 198.58 917.873 199.134 917.014 200.038 915.76 200.748 914.776 201.31 911.063 203.298 910.85 200.581 914.877 198.862 917.655 195.89 921.928 194.419 922.408 192.73 924.582 192.737 925.012 191.011 921.907 191.261 919.604 193.567 917.182 194.834 916.793 195.033 915.948 195.301 915.352 194.921 915.131 192.426 917.348 191.495 919.096 190.504 919.987 190.008 920.871 189.464 921.682 188.841 923.395 187.523 924.541 185.808 926.43 185.096 926.481 184.676 926.959 184.679 927.016 184.265 926.885 183.92 926.37 183.96 926.262 183.595 927.158 182.494 928.963 182.299 929.676 181.015 931.123 181.069 931.553 182.807 930.762 183.847 930.268 184.492 929.27 185.064 928.428 185.678 927.543 186.315 926.569 186.554 925.68 187.007 924.555 187.583 923.859 188.892 923.014 189.422Z" fill="#00366F" fill-rule="evenodd" fill-opacity="1"/><path d="M923.68 184.678C923.576 185.154 923.061 185.569 922.68 185.842 922.323 186.11 921.744 186.467 921.346 186.6 920.979 186.703 920.612 186.619 920.262 186.76 919.518 187.067 918.778 188.035 918.012 188.593 917.092 189.267 916.051 189.387 915.352 189.927 914.815 190.327 914.622 191.107 914.096 191.506 913.635 191.858 912.953 191.849 912.43 192.089 911.428 192.542 910.729 193.34 909.848 193.84 909.627 193.84 909.403 193.84 909.182 193.84 908.625 194.131 908.159 194.52 907.596 194.92 907.116 195.255 906.481 195.849 905.852 195.828 904.956 195.813 903.637 194.393 903.602 193.588 903.52 191.943 905.192 192.369 906.432 191.838 907.278 191.472 907.389 190.91 908.014 190.502 910.293 190.727 911.485 188.909 913.432 188.591 913.762 188.531 914.118 188.66 914.426 188.591 914.971 188.467 915.701 187.951 916.348 187.587 918.098 186.605 920.883 185.724 922.094 184.427 922.684 184.453 923.383 184.36 923.68 184.678Z" fill="#00366F" fill-rule="evenodd" fill-opacity="1"/><path d="M924.766 197.75C924.561 199.406 923.252 199.954 922.68 201.244 923.477 201.918 925.045 201.927 925.262 203.079 925.44 204.019 924.641 204.682 924.262 205.492 924.045 205.61 923.711 205.61 923.512 205.738 922.233 207.572 919.994 208.439 917.848 209.401 917.629 209.234 917.366 209.11 917.182 208.903 917.118 208.561 917.309 208.477 917.262 208.15 918.446 207.487 919.325 206.502 920.514 205.659 921.223 205.156 921.918 204.655 922.094 203.579 922.01 203.245 921.61 203.225 921.516 202.91 920.752 203.119 919.672 203.585 918.93 203.079 918.944 201.313 920.53 201.121 920.846 199.667 919.492 199.755 919.139 201.564 918.426 202.579 917.254 202.59 916.098 202.583 915.512 201.994 915.701 201.003 917.032 200.868 917.93 200.413 919.571 199.578 920.705 197.939 922.094 196.999 923.227 196.539 924.438 196.76 924.766 197.75Z" fill="#00366F" fill-rule="evenodd" fill-opacity="1"/><path d="M910.764 212.566C909.756 212.181 909.27 210.869 909.432 209.733 909.518 209.138 910.225 208.412 910.598 207.409 911.123 205.992 910.813 204.608 911.598 203.579 912.84 203.566 913.295 206.683 913.1 208.566 912.985 209.666 912.246 210.225 911.764 210.736 911.877 211.792 911.193 212.044 910.764 212.566Z" fill="#00366F" fill-rule="evenodd" fill-opacity="1"/><path d="M1002.89 200.451C1002.71 201.025 1002.36 201.423 1002.05 201.866 1001.19 201.767 1000.26 202.114 999.471 202.114 998.897 202.114 998.248 201.593 997.885 202.201 998.684 204.464 1000.3 208.044 998.633 210.521 998.393 210.699 998.137 210.858 997.969 211.105 995.948 211.922 993.535 210.772 991.471 210.271 990.516 210.044 989.444 210.267 989.057 209.36 989.778 208.633 991.016 209.419 992.219 209.523 994.59 209.733 996.662 209.159 997.555 207.781 997.297 206.302 997.332 203.121 996.055 202.867 994.569 202.569 992.772 205.131 991.221 205.029 990.75 205.264 990.658 205.864 990.137 206.192 988.647 207.145 985.938 206.559 985.223 205.36 986.377 203.895 988.411 203.579 990.223 202.7 991.327 202.165 992.235 201.345 993.387 200.867 994.518 200.395 995.912 199.863 997.223 199.703 997.918 199.612 998.727 199.79 999.471 199.703 999.85 199.655 1000.2 199.406 1000.55 199.367 1001.7 199.251 1002.5 199.643 1002.89 200.451Z" fill="#00366F" fill-rule="evenodd" fill-opacity="1"/><path d="M1006.05 180.382C1005.73 180.453 1005.45 180.911 1004.97 180.967 1004.23 181.053 1003.76 180.475 1002.8 180.633 1001.77 180.806 1001.4 181.853 1000.3 182.133 1000.52 181.417 1001.36 180.77 1000.8 179.973 1000.59 179.65 999.229 179.265 999.055 179.386 997.649 180.382 996.516 183.045 995.135 183.547 994.174 183.903 993.283 183.601 992.555 184.05 991.037 182.958 989.67 181.715 987.221 181.552 987.178 181.753 987.028 181.857 986.889 181.969 986.993 183.148 988.303 183.46 988.807 184.381 989.362 185.401 989.28 186.628 989.889 187.797 989.631 187.813 989.416 187.88 989.223 187.968 989.395 188.678 990.112 188.662 990.223 189.296 990.407 190.357 989.106 191.125 988.221 191.456 988.479 189.139 987.385 187.747 985.473 187.879 985.487 188.837 986.295 190.067 986.389 191.625 986.479 193.106 986.078 194.675 987.057 195.207 987.662 195.314 987.868 195.018 988.387 195.037 989.287 193.744 989.225 191.531 990.805 190.958 991.338 190.765 991.916 190.918 992.473 190.541 992.463 189.215 994.159 187.323 994.969 188.877 994.623 189.865 993.496 190.067 993.137 191.039 993.942 191.531 994.996 190.419 996.305 190.456 996.616 190.466 997.871 190.597 997.885 191.125 997.893 191.437 996.408 192.405 995.889 192.79 994.239 193.994 993.049 194.609 991.309 195.534 990.418 196.008 989.387 196.46 988.889 196.873 988.418 197.254 988.225 198.045 987.725 198.282 987.286 198.492 986.549 198.359 986.141 198.369 984.729 199.232 983.164 199.946 981.971 201.034 981.971 201.364 981.971 201.701 981.971 202.026 983.321 203.535 985.43 202.348 986.641 201.613 987.313 201.2 988.01 200.872 988.641 200.532 991.287 199.105 993.407 196.997 996.055 195.787 996.778 195.456 997.524 195.239 998.219 194.872 998.885 194.518 999.563 193.95 1000.39 194.122 999.672 196.296 996.985 197.219 995.801 199.202 996.733 200.139 997.233 198.696 997.805 198.281 998.539 197.759 999.692 197.439 1000.64 196.954 1001.58 196.465 1002.57 195.93 1003.14 195.206 1004.01 194.097 1003.35 191.842 1001.39 192.293 1000.98 192.381 1000.62 192.919 1000.14 193.121 999.358 193.448 998.342 193.607 997.469 193.873 996.524 194.157 995.772 194.682 995.055 194.71 995.639 194.057 996.879 193.844 997.969 193.121 998.58 192.721 999.032 191.86 999.723 191.707 1000.28 191.585 1001.43 192.036 1002.22 191.707 1002.64 191.533 1003.35 190.427 1003.89 189.709 1005.08 188.11 1005.86 186.868 1006.88 185.383 1007.4 184.643 1008.19 183.998 1008.47 183.297 1009.12 181.705 1007.49 180.113 1006.05 180.382ZM992.723 187.128C992.877 187.007 993.118 186.968 993.387 186.961 993.375 187.063 993.407 187.114 993.469 187.128 993.367 187.437 992.816 187.468 992.723 187.128ZM992.723 186.047C992.809 185.572 992.315 185.334 992.555 184.967 992.934 184.886 993.549 185.234 994.055 185.3 993.895 185.833 993.367 186 992.723 186.047ZM995.973 187.381C995.705 187.344 995.25 187.487 995.221 187.214 995.438 186.792 995.86 186.575 996.389 186.463 996.377 186.892 996.061 187.024 995.973 187.381ZM998.137 188.796C998 188.932 997.649 188.863 997.389 188.878 997.266 188.221 998.293 187.908 998.137 188.796ZM999.635 189.046C999.11 188.997 999.303 187.942 999.389 187.544 999.928 187.617 999.629 188.527 999.805 188.957 999.707 188.947 999.652 188.979 999.635 189.046ZM1004.14 186.794C1003.43 187.824 1002.68 188.926 1001.72 189.211 1001.9 188.039 1002.05 186.483 1000.64 186.301 1000.21 186.311 1000.08 186.626 999.723 186.711 999.649 186.055 999.92 185.745 1000.05 185.301 999.949 184.935 999.801 184.616 999.553 184.381 1000.43 183.07 1002.75 183.189 1004.05 182.305 1004.77 182.248 1005.2 182.492 1005.72 182.637 1005.72 184.245 1004.91 185.668 1004.14 186.794Z" fill="#00366F" fill-rule="evenodd" fill-opacity="1"/><path d="M803.435 216.655 803.561 216.655C804.095 216.655 804.506 216.714 804.79 216.832 805.103 216.981 805.356 217.165 805.517 217.442 805.705 217.719 805.8 217.992 805.8 218.297 805.8 218.57 805.705 218.843 805.548 219.088 805.386 219.337 805.171 219.518 804.855 219.669 805.262 219.792 805.579 219.975 805.8 220.253 805.99 220.524 806.117 220.861 806.117 221.227 806.117 221.53 806.053 221.805 805.924 222.081 805.768 222.321 805.609 222.534 805.421 222.688 805.234 222.814 804.984 222.929 804.696 222.997 804.411 223.052 804.034 223.116 803.624 223.116L803.435 223.116 803.435 222.357 803.624 222.357C803.904 222.357 804.095 222.321 804.221 222.321 804.411 222.265 804.599 222.228 804.726 222.137 804.855 222.049 804.984 221.93 805.075 221.772 805.139 221.623 805.199 221.44 805.199 221.226 805.199 220.983 805.139 220.795 805.012 220.617 804.887 220.428 804.696 220.311 804.474 220.22 804.253 220.156 803.904 220.128 803.495 220.128L803.434 220.128 803.434 219.362C803.807 219.362 804.061 219.337 804.253 219.272 804.474 219.21 804.63 219.123 804.756 218.968 804.855 218.815 804.917 218.635 804.917 218.386 804.917 218.179 804.855 217.99 804.756 217.842 804.662 217.687 804.506 217.564 804.317 217.5 804.128 217.44 803.842 217.411 803.435 217.411L803.435 216.655ZM801.066 223.117 801.066 216.655 803.435 216.655 803.435 217.413C803.398 217.413 803.34 217.413 803.27 217.413L801.948 217.413 801.948 219.363 803.398 219.363 803.435 219.363 803.435 220.129 801.948 220.129 801.948 222.358 803.435 222.358 803.435 223.117 801.066 223.117Z" fill="#00366F" fill-rule="nonzero" fill-opacity="1"/><path d="M806.684 223.117 806.684 216.655 811.515 216.655 811.515 217.413 807.568 217.413 807.568 219.403 811.258 219.403 811.258 220.156 807.568 220.156 807.568 222.358 811.672 222.358 811.672 223.117Z" fill="#00366F" fill-rule="nonzero" fill-opacity="1"/><path d="M812.397 216.655 813.282 216.655 813.282 223.117 812.397 223.117Z" fill="#00366F" fill-rule="nonzero" fill-opacity="1"/><path d="M813.756 221.287 814.543 221.168C814.572 221.655 814.671 221.988 814.828 222.164 815.019 222.358 815.236 222.44 815.555 222.44 815.774 222.44 815.967 222.411 816.119 222.293 816.279 222.206 816.379 222.082 816.439 221.899 816.498 221.75 816.533 221.465 816.533 221.108L816.533 216.655 817.421 216.655 817.421 221.05C817.421 221.59 817.356 222.017 817.229 222.293 817.073 222.603 816.879 222.815 816.565 222.998 816.279 223.151 815.932 223.208 815.555 223.208 814.952 223.208 814.515 223.053 814.195 222.722 813.883 222.411 813.725 221.932 813.756 221.287Z" fill="#00366F" fill-rule="nonzero" fill-opacity="1"/><path d="M818.364 216.655 819.248 216.655 819.248 223.117 818.364 223.117Z" fill="#00366F" fill-rule="nonzero" fill-opacity="1"/><path d="M820.162 223.117 820.162 216.655 821.046 216.655 824.579 221.718 824.579 216.655 825.402 216.655 825.402 223.117 824.521 223.117 821.014 218.025 821.014 223.117Z" fill="#00366F" fill-rule="nonzero" fill-opacity="1"/><path d="M829.378 220.577 829.378 219.824 832.221 219.824 832.221 222.206C831.774 222.535 831.335 222.775 830.858 222.967 830.387 223.117 829.916 223.208 829.442 223.208 828.78 223.208 828.181 223.087 827.641 222.815 827.106 222.535 826.696 222.138 826.442 221.624 826.16 221.108 826.031 220.557 826.031 219.913 826.031 219.273 826.16 218.693 826.442 218.145 826.695 217.599 827.106 217.203 827.608 216.927 828.115 216.679 828.718 216.536 829.377 216.536 829.851 216.536 830.294 216.623 830.672 216.777 831.082 216.926 831.365 217.139 831.584 217.412 831.812 217.654 831.997 218.024 832.093 218.451L831.303 218.661C831.207 218.331 831.081 218.083 830.923 217.897 830.798 217.718 830.582 217.564 830.294 217.441 830.009 217.322 829.724 217.258 829.377 217.258 828.966 217.258 828.619 217.321 828.33 217.441 828.024 217.564 827.799 217.718 827.608 217.933 827.42 218.113 827.296 218.33 827.203 218.57 827.01 218.968 826.948 219.402 826.948 219.85 826.948 220.427 827.041 220.92 827.231 221.286 827.453 221.682 827.736 221.987 828.148 222.163 828.528 222.357 828.934 222.439 829.377 222.439 829.784 222.439 830.136 222.389 830.514 222.228 830.857 222.081 831.142 221.93 831.334 221.772L831.334 220.576 829.378 220.576Z" fill="#00366F" fill-rule="nonzero" fill-opacity="1"/><path d="M836.607 223.117 836.607 217.413 834.4 217.413 834.4 216.655 839.704 216.655 839.704 217.413 837.49 217.413 837.49 223.117Z" fill="#00366F" fill-rule="nonzero" fill-opacity="1"/><path d="M839.985 223.117 839.985 216.655 844.814 216.655 844.814 217.413 840.864 217.413 840.864 219.403 844.563 219.403 844.563 220.156 840.864 220.156 840.864 222.358 844.972 222.358 844.972 223.117Z" fill="#00366F" fill-rule="nonzero" fill-opacity="1"/><path d="M850.306 220.835 851.192 221.067C851.001 221.75 850.657 222.293 850.181 222.659 849.706 223.024 849.108 223.208 848.412 223.208 847.685 223.208 847.12 223.087 846.678 222.775 846.199 222.505 845.856 222.115 845.637 221.555 845.413 221.014 845.289 220.428 845.289 219.824 845.289 219.157 845.413 218.571 845.665 218.084 845.951 217.565 846.328 217.203 846.801 216.928 847.307 216.68 847.845 216.537 848.445 216.537 849.108 216.537 849.674 216.714 850.117 217.047 850.56 217.359 850.908 217.81 851.061 218.423L850.211 218.637C850.052 218.146 849.834 217.81 849.512 217.6 849.234 217.386 848.856 217.26 848.411 217.26 847.906 217.26 847.463 217.386 847.119 217.63 846.774 217.875 846.546 218.181 846.391 218.571 846.265 218.996 846.197 219.403 846.197 219.824 846.197 220.373 846.265 220.862 846.423 221.254 846.611 221.684 846.864 221.988 847.215 222.164 847.562 222.391 847.938 222.473 848.348 222.473 848.856 222.473 849.262 222.359 849.608 222.082 849.956 221.806 850.181 221.379 850.306 220.835Z" fill="#00366F" fill-rule="nonzero" fill-opacity="1"/><path d="M851.663 223.117 851.663 216.655 852.55 216.655 852.55 219.308 856.018 219.308 856.018 216.655 856.905 216.655 856.905 223.117 856.018 223.117 856.018 220.069 852.55 220.069 852.55 223.117Z" fill="#00366F" fill-rule="nonzero" fill-opacity="1"/><path d="M857.693 223.117 857.693 216.655 858.61 216.655 862.113 221.718 862.113 216.655 862.967 216.655 862.967 223.117 862.047 223.117 858.544 218.025 858.544 223.117Z" fill="#00366F" fill-rule="nonzero" fill-opacity="1"/><path d="M866.718 216.537 866.752 216.537C867.353 216.537 867.922 216.68 868.394 216.952 868.898 217.26 869.275 217.655 869.531 218.145 869.78 218.662 869.935 219.24 869.935 219.881 869.935 220.556 869.78 221.14 869.531 221.654 869.242 222.163 868.866 222.534 868.359 222.814 867.859 223.085 867.321 223.207 866.718 223.207L866.718 222.472C867.385 222.472 867.952 222.266 868.359 221.805 868.804 221.35 869.026 220.707 869.026 219.881 869.026 219.362 868.932 218.91 868.74 218.509 868.552 218.113 868.302 217.809 867.923 217.599 867.574 217.385 867.193 217.259 866.753 217.259L866.719 217.259 866.719 216.537ZM863.53 219.976C863.53 218.877 863.846 218.054 864.419 217.443 865.015 216.833 865.802 216.538 866.718 216.538L866.718 217.261C866.117 217.261 865.59 217.475 865.111 217.9 864.667 218.299 864.447 218.998 864.447 219.977 864.447 220.769 864.667 221.38 865.111 221.807 865.523 222.268 866.087 222.474 866.718 222.474L866.718 223.209C866.087 223.209 865.553 223.054 865.05 222.776 864.543 222.473 864.165 222.083 863.908 221.556 863.659 221.067 863.53 220.524 863.53 219.976Z" fill="#00366F" fill-rule="nonzero" fill-opacity="1"/><path d="M870.381 223.117 870.381 216.655 871.267 216.655 871.267 222.358 874.545 222.358 874.545 223.117Z" fill="#00366F" fill-rule="nonzero" fill-opacity="1"/><path d="M877.889 216.537 877.889 216.537C878.487 216.537 879.057 216.68 879.559 216.952 880.034 217.26 880.413 217.655 880.664 218.145 880.951 218.662 881.076 219.24 881.076 219.881 881.076 220.556 880.951 221.14 880.664 221.654 880.381 222.163 880.002 222.534 879.498 222.814 878.994 223.085 878.455 223.207 877.889 223.207L877.889 222.472C878.553 222.472 879.09 222.266 879.532 221.805 879.942 221.35 880.163 220.707 880.163 219.881 880.163 219.362 880.067 218.91 879.878 218.509 879.69 218.113 879.433 217.809 879.091 217.599 878.708 217.385 878.335 217.259 877.89 217.259L877.89 216.537ZM874.672 219.976C874.672 218.877 874.986 218.054 875.586 217.443 876.182 216.833 876.94 216.538 877.889 216.538L877.889 217.261C877.26 217.261 876.719 217.475 876.284 217.9 875.805 218.299 875.587 218.998 875.587 219.977 875.587 220.769 875.806 221.38 876.249 221.807 876.692 222.268 877.228 222.474 877.89 222.474L877.89 223.209C877.261 223.209 876.693 223.054 876.183 222.776 875.716 222.473 875.335 222.083 875.082 221.556 874.83 221.067 874.672 220.524 874.672 219.976Z" fill="#00366F" fill-rule="nonzero" fill-opacity="1"/><path d="M884.676 220.577 884.676 219.824 887.516 219.824 887.516 222.206C887.073 222.535 886.635 222.775 886.162 222.967 885.711 223.117 885.246 223.208 884.74 223.208 884.105 223.208 883.504 223.087 882.969 222.815 882.434 222.535 882.02 222.138 881.74 221.624 881.484 221.108 881.328 220.557 881.328 219.913 881.328 219.273 881.484 218.693 881.74 218.145 882.019 217.599 882.402 217.203 882.908 216.927 883.441 216.679 884.008 216.536 884.676 216.536 885.18 216.536 885.592 216.623 885.998 216.777 886.381 216.926 886.693 217.139 886.914 217.412 887.139 217.654 887.299 218.024 887.42 218.451L886.635 218.661C886.502 218.331 886.381 218.083 886.25 217.897 886.092 217.718 885.877 217.564 885.621 217.441 885.34 217.322 885.021 217.258 884.676 217.258 884.293 217.258 883.949 217.321 883.633 217.441 883.354 217.564 883.096 217.718 882.94 217.933 882.747 218.113 882.594 218.33 882.501 218.57 882.341 218.968 882.243 219.402 882.243 219.85 882.243 220.427 882.341 220.92 882.559 221.286 882.747 221.682 883.065 221.987 883.442 222.163 883.854 222.357 884.262 222.439 884.708 222.439 885.085 222.439 885.468 222.389 885.812 222.228 886.193 222.081 886.476 221.93 886.664 221.772L886.664 220.576 884.676 220.576Z" fill="#00366F" fill-rule="nonzero" fill-opacity="1"/><path d="M890.039 223.117 890.039 220.373 887.488 216.655 888.556 216.655 889.884 218.605C890.103 218.969 890.325 219.337 890.544 219.698 890.732 219.363 890.991 218.969 891.267 218.54L892.562 216.655 893.607 216.655 890.923 220.373 890.923 223.117 890.039 223.117Z" fill="#00366F" fill-rule="nonzero" fill-opacity="1"/><path d="M898.119 216.655 898.562 216.655 901.31 223.117 900.296 223.117 899.54 221.168 898.118 221.168 898.118 220.463 899.255 220.463 898.562 218.662C898.373 218.181 898.214 217.782 898.119 217.442L898.119 216.655ZM895.057 223.117 897.616 216.655 898.12 216.655 898.12 217.442C898.12 217.413 898.091 217.385 898.091 217.323 897.993 217.751 897.868 218.145 897.712 218.571L896.987 220.463 898.12 220.463 898.12 221.168 896.733 221.168 896.004 223.117 895.057 223.117Z" fill="#00366F" fill-rule="nonzero" fill-opacity="1"/><path d="M901.369 223.117 901.369 216.655 902.252 216.655 905.787 221.718 905.787 216.655 906.613 216.655 906.613 223.117 905.727 223.117 902.227 218.025 902.227 223.117Z" fill="#00366F" fill-rule="nonzero" fill-opacity="1"/><path d="M910.178 216.655C910.492 216.679 910.717 216.714 910.905 216.739 911.315 216.832 911.634 216.981 911.915 217.203 912.265 217.502 912.513 217.875 912.704 218.298 912.862 218.753 912.958 219.274 912.958 219.852 912.958 220.337 912.894 220.768 912.767 221.141 912.642 221.531 912.513 221.838 912.324 222.082 912.136 222.322 911.916 222.535 911.699 222.659 911.504 222.815 911.219 222.93 910.906 222.998 910.683 223.053 910.431 223.087 910.179 223.087L910.179 222.322C910.431 222.322 910.62 222.266 910.779 222.229 911.029 222.138 911.218 222.016 911.381 221.899 911.604 221.683 911.756 221.406 911.852 221.067 911.977 220.737 912.047 220.312 912.047 219.824 912.047 219.157 911.916 218.636 911.699 218.271 911.472 217.898 911.191 217.655 910.877 217.539 910.684 217.474 910.467 217.442 910.18 217.413L910.18 216.655ZM907.432 223.117 907.432 216.655 909.741 216.655C909.893 216.655 910.054 216.655 910.179 216.655L910.179 217.413C910.054 217.413 909.894 217.413 909.704 217.413L908.315 217.413 908.315 222.358 909.741 222.358C909.893 222.358 910.054 222.322 910.179 222.322L910.179 223.087C910.054 223.117 909.958 223.117 909.833 223.117L907.432 223.117Z" fill="#00366F" fill-rule="nonzero" fill-opacity="1"/><path d="M917.91 216.655 918.039 216.655C918.541 216.655 918.955 216.714 919.273 216.832 919.584 216.981 919.804 217.165 919.996 217.442 920.152 217.719 920.24 217.992 920.24 218.297 920.24 218.57 920.183 218.843 920.025 219.088 919.873 219.337 919.617 219.518 919.334 219.669 919.715 219.792 920.025 219.975 920.24 220.253 920.469 220.524 920.564 220.861 920.564 221.227 920.564 221.53 920.501 221.805 920.371 222.081 920.24 222.321 920.094 222.534 919.898 222.688 919.679 222.814 919.457 222.929 919.144 222.997 918.861 223.052 918.513 223.116 918.07 223.116L917.91 223.116 917.91 222.357 918.07 222.357C918.359 222.357 918.57 222.321 918.672 222.321 918.891 222.265 919.047 222.228 919.174 222.137 919.334 222.049 919.428 221.93 919.518 221.772 919.618 221.623 919.647 221.44 919.647 221.226 919.647 220.983 919.584 220.795 919.458 220.617 919.335 220.428 919.175 220.311 918.923 220.22 918.704 220.156 918.386 220.128 917.944 220.128L917.911 220.128 917.911 219.362C918.261 219.362 918.542 219.337 918.704 219.272 918.923 219.21 919.112 219.123 919.206 218.968 919.335 218.815 919.395 218.635 919.395 218.386 919.395 218.179 919.334 217.99 919.206 217.842 919.112 217.687 918.956 217.564 918.763 217.5 918.572 217.44 918.294 217.411 917.911 217.411L917.911 216.655ZM915.539 223.117 915.539 216.655 917.91 216.655 917.91 217.413C917.847 217.413 917.785 217.413 917.754 217.413L916.43 217.413 916.43 219.363 917.848 219.363 917.911 219.363 917.911 220.129 916.431 220.129 916.431 222.358 917.911 222.358 917.911 223.117 915.539 223.117Z" fill="#00366F" fill-rule="nonzero" fill-opacity="1"/><path d="M925.521 216.655 926.404 216.655 926.404 220.373C926.404 221.05 926.343 221.53 926.185 221.932 926.023 222.293 925.742 222.631 925.361 222.844 924.953 223.087 924.443 223.208 923.812 223.208 923.185 223.208 922.648 223.117 922.263 222.906 921.857 222.689 921.572 222.39 921.415 221.988 921.224 221.59 921.163 221.067 921.163 220.373L921.163 216.655 922.048 216.655 922.048 220.373C922.048 220.95 922.112 221.351 922.206 221.624 922.298 221.866 922.487 222.082 922.772 222.229 923.022 222.39 923.336 222.44 923.719 222.44 924.383 222.44 924.823 222.293 925.108 222.016 925.391 221.749 925.52 221.198 925.52 220.372L925.52 216.655Z" fill="#00366F" fill-rule="nonzero" fill-opacity="1"/><path d="M926.938 221.05 927.76 220.95C927.791 221.287 927.887 221.555 928.043 221.75 928.201 221.955 928.422 222.139 928.707 222.267 929.02 222.391 929.371 222.441 929.748 222.441 930.062 222.441 930.377 222.412 930.633 222.294 930.887 222.207 931.078 222.083 931.203 221.9 931.326 221.751 931.394 221.556 931.394 221.351 931.394 221.168 931.326 220.985 931.203 220.835 931.105 220.677 930.887 220.557 930.603 220.429 930.441 220.373 930.031 220.283 929.431 220.129 928.8 219.976 928.392 219.852 928.14 219.733 927.824 219.549 927.57 219.364 927.411 219.125 927.253 218.878 927.192 218.606 927.192 218.333 927.192 217.993 927.286 217.689 927.477 217.414 927.663 217.109 927.948 216.901 928.327 216.779 928.673 216.625 929.083 216.538 929.53 216.538 930.03 216.538 930.471 216.625 930.854 216.779 931.227 216.928 931.518 217.141 931.702 217.443 931.927 217.752 932.02 218.085 932.054 218.483L931.202 218.541C931.169 218.115 931.013 217.811 930.723 217.601 930.471 217.387 930.094 217.293 929.592 217.293 929.055 217.293 928.645 217.387 928.391 217.566 928.168 217.783 928.041 217.993 928.041 218.272 928.041 218.483 928.139 218.694 928.299 218.844 928.453 218.996 928.924 219.157 929.621 219.308 930.344 219.45 930.853 219.579 931.103 219.699 931.48 219.883 931.798 220.1 931.953 220.374 932.148 220.619 932.24 220.951 932.24 221.288 932.24 221.625 932.148 221.956 931.953 222.267 931.736 222.563 931.455 222.776 931.076 222.967 930.691 223.117 930.248 223.208 929.779 223.208 929.175 223.208 928.672 223.117 928.263 222.967 927.851 222.776 927.538 222.535 927.284 222.206 927.063 221.838 926.938 221.466 926.938 221.05Z" fill="#00366F" fill-rule="nonzero" fill-opacity="1"/><path d="M932.969 216.655 933.848 216.655 933.848 223.117 932.969 223.117Z" fill="#00366F" fill-rule="nonzero" fill-opacity="1"/><path d="M934.734 223.117 934.734 216.655 935.652 216.655 939.156 221.718 939.156 216.655 940.006 216.655 940.006 223.117 939.094 223.117 935.586 218.025 935.586 223.117Z" fill="#00366F" fill-rule="nonzero" fill-opacity="1"/><path d="M940.863 223.117 940.863 216.655 945.688 216.655 945.688 217.413 941.742 217.413 941.742 219.403 945.434 219.403 945.434 220.156 941.742 220.156 941.742 222.358 945.852 222.358 945.852 223.117Z" fill="#00366F" fill-rule="nonzero" fill-opacity="1"/><path d="M946.129 221.05 946.953 220.95C946.982 221.287 947.078 221.555 947.234 221.75 947.363 221.955 947.578 222.139 947.9 222.267 948.213 222.391 948.527 222.441 948.937 222.441 949.253 222.441 949.574 222.412 949.822 222.294 950.074 222.207 950.265 222.083 950.392 221.9 950.519 221.751 950.581 221.556 950.581 221.351 950.581 221.168 950.518 220.985 950.392 220.835 950.265 220.677 950.074 220.557 949.792 220.429 949.632 220.373 949.222 220.283 948.622 220.129 947.993 219.976 947.577 219.852 947.329 219.733 947.013 219.549 946.761 219.364 946.604 219.125 946.444 218.878 946.385 218.606 946.385 218.333 946.385 217.993 946.475 217.689 946.666 217.414 946.854 217.109 947.137 216.901 947.488 216.779 947.867 216.625 948.279 216.538 948.715 216.538 949.221 216.538 949.664 216.625 950.039 216.779 950.426 216.928 950.705 217.141 950.893 217.443 951.114 217.752 951.211 218.085 951.241 218.483L950.391 218.541C950.327 218.115 950.198 217.811 949.918 217.601 949.664 217.387 949.281 217.293 948.748 217.293 948.211 217.293 947.832 217.387 947.576 217.566 947.361 217.783 947.232 217.993 947.232 218.272 947.232 218.483 947.289 218.694 947.488 218.844 947.644 218.996 948.084 219.157 948.812 219.308 949.537 219.45 950.011 219.579 950.298 219.699 950.673 219.883 950.958 220.1 951.146 220.374 951.337 220.619 951.433 220.951 951.433 221.288 951.433 221.625 951.337 221.956 951.113 222.267 950.927 222.563 950.642 222.776 950.263 222.967 949.888 223.117 949.441 223.208 948.966 223.208 948.37 223.208 947.866 223.117 947.456 222.967 947.046 222.776 946.731 222.535 946.474 222.206 946.256 221.838 946.129 221.466 946.129 221.05Z" fill="#00366F" fill-rule="nonzero" fill-opacity="1"/><path d="M951.689 221.05 952.539 220.95C952.568 221.287 952.664 221.555 952.791 221.75 952.947 221.955 953.17 222.139 953.482 222.267 953.765 222.391 954.115 222.441 954.494 222.441 954.844 222.441 955.131 222.412 955.377 222.294 955.664 222.207 955.854 222.083 955.981 221.9 956.104 221.751 956.17 221.556 956.17 221.351 956.17 221.168 956.104 220.985 955.981 220.835 955.854 220.677 955.665 220.557 955.377 220.429 955.188 220.373 954.809 220.283 954.182 220.129 953.584 219.976 953.133 219.852 952.889 219.733 952.569 219.549 952.35 219.364 952.192 219.125 952.03 218.878 951.936 218.606 951.936 218.333 951.936 217.993 952.03 217.689 952.223 217.414 952.412 217.109 952.694 216.901 953.075 216.779 953.454 216.625 953.866 216.538 954.307 216.538 954.809 216.538 955.223 216.625 955.602 216.779 955.981 216.928 956.297 217.141 956.485 217.443 956.676 217.752 956.801 218.085 956.801 218.483L955.981 218.541C955.913 218.115 955.756 217.811 955.504 217.601 955.252 217.387 954.844 217.293 954.338 217.293 953.801 217.293 953.424 217.387 953.17 217.566 952.916 217.783 952.791 217.993 952.791 218.272 952.791 218.483 952.889 218.694 953.074 218.844 953.234 218.996 953.676 219.157 954.398 219.308 955.13 219.45 955.601 219.579 955.882 219.699 956.265 219.883 956.546 220.1 956.737 220.374 956.923 220.619 957.02 220.951 957.02 221.288 957.02 221.625 956.893 221.956 956.706 222.267 956.513 222.563 956.2 222.776 955.819 222.967 955.442 223.117 955.03 223.208 954.526 223.208 953.926 223.208 953.422 223.117 953.012 222.967 952.6 222.776 952.282 222.535 952.063 222.206 951.844 221.838 951.719 221.466 951.689 221.05Z" fill="#00366F" fill-rule="nonzero" fill-opacity="1"/><path d="M963.994 216.655 964.873 216.655 964.873 220.373C964.873 221.05 964.818 221.53 964.656 221.932 964.498 222.293 964.217 222.631 963.838 222.844 963.428 223.087 962.926 223.208 962.256 223.208 961.66 223.208 961.123 223.117 960.742 222.906 960.334 222.689 960.053 222.39 959.896 221.988 959.703 221.59 959.638 221.067 959.638 220.373L959.638 216.655 960.527 216.655 960.527 220.373C960.527 220.95 960.556 221.351 960.683 221.624 960.777 221.866 960.966 222.082 961.218 222.229 961.501 222.39 961.818 222.44 962.197 222.44 962.857 222.44 963.302 222.293 963.588 222.016 963.871 221.749 963.994 221.198 963.994 220.372L963.994 216.655Z" fill="#00366F" fill-rule="nonzero" fill-opacity="1"/><path d="M965.701 223.117 965.701 216.655 966.619 216.655 970.113 221.718 970.113 216.655 970.973 216.655 970.973 223.117 970.059 223.117 966.551 218.025 966.551 223.117Z" fill="#00366F" fill-rule="nonzero" fill-opacity="1"/><path d="M971.953 216.655 972.828 216.655 972.828 223.117 971.953 223.117Z" fill="#00366F" fill-rule="nonzero" fill-opacity="1"/><path d="M975.641 223.117 973.055 216.655 974.032 216.655 975.77 221.35C975.897 221.717 976.026 222.081 976.116 222.39 976.212 222.05 976.341 221.683 976.468 221.35L978.261 216.655 979.177 216.655 976.562 223.117 975.641 223.117Z" fill="#00366F" fill-rule="nonzero" fill-opacity="1"/><path d="M979.334 223.117 979.334 216.655 984.168 216.655 984.168 217.413 980.223 217.413 980.223 219.403 983.916 219.403 983.916 220.156 980.223 220.156 980.223 222.358 984.326 222.358 984.326 223.117Z" fill="#00366F" fill-rule="nonzero" fill-opacity="1"/><path d="M987.572 216.655 987.855 216.655C988.459 216.655 988.935 216.714 989.214 216.832 989.53 216.952 989.78 217.141 989.976 217.442 990.164 217.719 990.255 218.053 990.255 218.422 990.255 218.876 990.101 219.239 989.78 219.578 989.467 219.881 988.997 220.099 988.362 220.155 988.581 220.282 988.774 220.372 988.901 220.489 989.151 220.707 989.403 221.013 989.63 221.349L990.792 223.116 989.692 223.116 988.805 221.772C988.553 221.377 988.33 221.066 988.17 220.861 987.982 220.675 987.854 220.523 987.699 220.427 987.666 220.396 987.605 220.371 987.57 220.371L987.57 219.483 987.699 219.483C988.076 219.483 988.42 219.447 988.648 219.361 988.863 219.305 989.029 219.182 989.15 218.994 989.277 218.814 989.341 218.635 989.341 218.421 989.341 218.112 989.212 217.873 988.995 217.653 988.772 217.471 988.39 217.356 987.886 217.356L987.57 217.356 987.57 216.655ZM984.922 223.117 984.922 216.655 987.572 216.655 987.572 217.358 985.779 217.358 985.779 219.485 987.572 219.485 987.572 220.373C987.476 220.312 987.384 220.283 987.322 220.283 987.195 220.254 987.039 220.254 986.82 220.254L985.779 220.254 985.779 223.117 984.922 223.117Z" fill="#00366F" fill-rule="nonzero" fill-opacity="1"/><path d="M990.699 221.05 991.519 220.95C991.552 221.287 991.644 221.555 991.808 221.75 991.931 221.955 992.152 222.139 992.466 222.267 992.779 222.391 993.097 222.441 993.476 222.441 993.826 222.441 994.109 222.412 994.388 222.294 994.648 222.207 994.835 222.083 994.96 221.9 995.085 221.751 995.148 221.556 995.148 221.351 995.148 221.168 995.085 220.985 994.96 220.835 994.835 220.677 994.647 220.557 994.358 220.429 994.172 220.373 993.79 220.283 993.163 220.129 992.559 219.976 992.118 219.852 991.897 219.733 991.551 219.549 991.333 219.364 991.172 219.125 991.018 218.878 990.951 218.606 990.951 218.333 990.951 217.993 991.041 217.689 991.234 217.414 991.423 217.109 991.711 216.901 992.058 216.779 992.435 216.625 992.841 216.538 993.283 216.538 993.789 216.538 994.232 216.625 994.611 216.779 994.992 216.928 995.273 217.141 995.465 217.443 995.684 217.752 995.778 218.085 995.815 218.483L994.96 218.541C994.899 218.115 994.739 217.811 994.485 217.601 994.233 217.387 993.825 217.293 993.317 217.293 992.778 217.293 992.405 217.387 992.151 217.566 991.897 217.783 991.807 217.993 991.807 218.272 991.807 218.483 991.868 218.694 992.059 218.844 992.213 218.996 992.651 219.157 993.379 219.308 994.108 219.45 994.582 219.579 994.865 219.699 995.246 219.883 995.525 220.1 995.719 220.374 995.905 220.619 996 220.951 996 221.288 996 221.625 995.904 221.956 995.684 222.267 995.496 222.563 995.207 222.776 994.801 222.967 994.422 223.117 994.01 223.208 993.539 223.208 992.939 223.208 992.404 223.117 992.021 222.967 991.617 222.776 991.267 222.535 991.041 222.206 990.826 221.838 990.699 221.466 990.699 221.05Z" fill="#00366F" fill-rule="nonzero" fill-opacity="1"/><path d="M996.697 216.655 997.58 216.655 997.58 223.117 996.697 223.117Z" fill="#00366F" fill-rule="nonzero" fill-opacity="1"/><path d="M1000.2 223.117 1000.2 217.413 997.99 217.413 997.99 216.655 1003.3 216.655 1003.3 217.413 1001.09 217.413 1001.09 223.117Z" fill="#00366F" fill-rule="nonzero" fill-opacity="1"/><path d="M1005.44 223.117 1005.44 220.373 1002.85 216.655 1003.92 216.655 1005.25 218.605C1005.5 218.969 1005.72 219.337 1005.95 219.698 1006.13 219.363 1006.38 218.969 1006.67 218.54L1007.97 216.655 1008.97 216.655 1006.33 220.373 1006.33 223.117 1005.44 223.117Z" fill="#00366F" fill-rule="nonzero" fill-opacity="1"/><path d="M759.649 225.275C756.163 225.275 752.779 224.605 749.593 223.29 746.514 222.016 743.75 220.196 741.375 217.875 739.002 215.556 737.137 212.852 735.833 209.843 734.483 206.725 733.801 203.41 733.801 200.001 733.801 196.588 734.484 193.275 735.833 190.156 737.137 187.148 739.002 184.445 741.375 182.125 743.75 179.803 746.514 177.983 749.593 176.709 752.779 175.393 756.163 174.725 759.649 174.725 763.14 174.725 766.524 175.393 769.71 176.709 772.787 177.983 775.552 179.803 777.926 182.125 780.301 184.445 782.164 187.148 783.468 190.156 784.816 193.275 785.503 196.588 785.503 200.001 785.503 203.41 784.816 206.725 783.468 209.843 782.164 212.852 780.301 215.556 777.926 217.875 775.552 220.196 772.787 222.016 769.71 223.29 766.523 224.605 763.14 225.275 759.649 225.275L759.649 225.275ZM759.649 175.746C745.96 175.746 734.82 186.625 734.82 200.001 734.82 213.376 745.961 224.255 759.649 224.255 773.341 224.255 784.482 213.376 784.482 200.001 784.481 186.625 773.341 175.746 759.649 175.746Z" fill="#00366F" fill-rule="nonzero" fill-opacity="1"/><path d="M762.691 218.502C763.03 218.436 763.277 218.272 763.491 218.646 763.37 218.878 763.163 219.193 762.889 219.292 762.798 219.106 763.003 219.02 762.981 218.86 762.882 218.741 762.685 218.715 762.691 218.502Z" fill="#00366F" fill-rule="evenodd" fill-opacity="1"/><path d="M763.657 219.761C763.775 219.643 764.056 219.626 764.198 219.686 764.283 219.79 764.176 219.832 764.198 219.916 764.691 219.837 764.679 220.233 764.718 220.661 764.778 221.3 765.218 222.366 764.867 222.743 764.484 222.715 763.992 222.597 763.775 222.32 764.072 222.184 764.357 222.464 764.606 222.217 764.543 221.579 764.487 220.941 764.334 220.272 764.138 220.241 763.856 220.484 763.687 220.67 763.742 220.732 763.875 220.568 763.933 220.624 763.961 220.672 763.977 220.749 764.026 220.731 764.029 220.904 763.956 221.05 763.824 221.18 763.928 221.301 764.096 221.236 764.194 221.381 764.258 221.497 764.149 221.553 764.176 221.657 763.937 221.853 763.622 222.366 763.299 222.283 763.329 221.978 763.839 221.836 763.792 221.502 763.653 221.411 763.532 221.602 763.426 221.531 763.33 221.326 763.559 221.234 763.579 221.069 763.436 221.07 763.419 221.337 763.347 221.449 763.196 221.497 763.04 221.553 762.946 221.417 763.166 221.234 763.469 220.997 763.641 220.727 763.287 220.907 763.064 221.356 762.516 221.554 762.459 221.502 762.385 221.49 762.347 221.367 762.935 220.896 763.559 220.398 763.937 219.927 763.462 219.92 763.326 220.478 762.809 220.601 762.707 220.428 762.844 220.196 762.998 220.045 763.315 219.74 763.827 219.343 764.03 219.034 764.02 218.915 763.92 219.061 763.908 218.942 764.036 218.803 764.207 218.679 764.324 218.541 764.454 218.592 764.452 218.569 764.54 218.74 764.407 219.197 763.813 219.336 763.657 219.761Z" fill="#00366F" fill-rule="evenodd" fill-opacity="1"/><path d="M763.613 219.127C763.392 219.445 763.085 219.648 762.763 219.894 762.48 220.301 762.016 220.585 761.637 220.873 761.481 220.881 761.301 220.728 761.284 220.551 761.347 220.481 761.493 220.369 761.594 220.396 761.644 220.316 761.742 220.258 761.795 220.181 762.418 219.975 763.015 219.348 763.613 219.127Z" fill="#00366F" fill-rule="evenodd" fill-opacity="1"/><path d="M762.482 221.727C762.934 221.973 762.84 222.596 762.557 222.884 762.18 222.634 762.531 222.106 762.482 221.727Z" fill="#00366F" fill-rule="evenodd" fill-opacity="1"/><path d="M768.895 218.435C768.982 218.379 769.003 218.16 769.116 218.014 769.283 217.98 769.383 218.004 769.538 218.084 769.402 218.362 769.173 218.679 768.96 218.965 769.094 219.733 769.032 221.391 767.883 221.311 768.199 220.873 768.642 220.31 768.568 219.717 768.415 219.913 768.357 220.05 768.191 220.287 768.012 220.368 767.635 220.19 767.456 220.016 767.635 219.813 767.855 219.705 768.011 219.538 768.137 219.402 768.378 219.177 768.446 219.002 768.531 218.771 768.284 218.012 768.127 217.648 768.044 217.457 767.874 217.357 767.91 217.114 767.93 217.063 767.966 217.075 767.986 217.042 768.89 217.316 768.563 217.979 768.895 218.435Z" fill="#00366F" fill-rule="evenodd" fill-opacity="1"/><path d="M769.043 219.24C769.076 219.207 769.122 219.219 769.152 219.181 769.344 219.184 769.377 219.377 769.494 219.475 769.894 219.817 770.304 219.9 770.799 219.893 770.786 220.177 770.378 220.435 770.153 220.549 769.678 220.146 769.354 219.695 769.043 219.24Z" fill="#00366F" fill-rule="evenodd" fill-opacity="1"/><path d="M773.357 217.833C773.346 217.793 773.357 217.768 773.384 217.756 773.619 217.351 773.767 216.738 774.093 216.351 774.251 216.167 774.527 215.863 774.829 215.922 774.9 216.252 774.602 216.305 774.433 216.452 774.693 216.765 775.241 216.866 775.17 217.325 775.113 217.716 774.528 217.78 774.104 217.982 774.306 217.668 774.822 217.59 774.857 217.153 774.721 216.954 774.586 216.755 774.325 216.716 773.923 217.064 774.108 217.954 773.357 217.833Z" fill="#00366F" fill-rule="evenodd" fill-opacity="1"/><path d="M773.063 214.177C773.065 214.031 772.99 213.991 772.92 213.944 772.387 214.063 772.954 214.857 772.355 215.075 772.138 215.154 771.817 214.961 771.66 215.28 771.899 215.405 772.482 215.454 772.378 215.76 772.504 215.735 772.595 215.754 772.643 215.83 772.618 215.949 772.654 216.114 772.544 216.169 772.536 216.044 772.421 216.057 772.404 215.937 772.281 215.942 772.071 215.902 771.975 215.997 772.274 216.168 772.426 216.527 772.757 216.65 773.013 216.428 772.585 215.942 772.918 215.721 772.854 215.572 772.813 215.351 773.044 215.341 773.099 215.518 773.001 215.584 773.028 215.74 773.258 215.659 773.186 215.35 773.516 215.346 773.529 215.982 773.083 216.269 773.081 216.892 772.849 217.074 772.685 217.453 772.727 217.742 772.862 217.817 773.008 217.694 773.114 217.648 773.448 216.946 773.559 216.077 774.044 215.49 774.089 215.877 773.966 216.109 773.95 216.371 774.109 216.367 774.131 216.258 774.092 216.098 774.255 215.851 774.423 215.604 774.405 215.221 774.351 215.193 774.32 215.138 774.28 215.093 774.196 215.107 774.113 215.118 774.03 215.128 773.918 215.448 773.707 215.69 773.53 215.96 773.697 215.653 773.703 215.219 774.057 215.053 773.941 214.556 774.331 213.476 773.588 213.522 773.443 213.764 773.109 213.862 773.063 214.177ZM772.518 215.197C772.49 215.089 772.622 215.107 772.683 215.066 772.664 215.144 772.622 215.277 772.518 215.197ZM773.806 214.834C773.704 214.819 773.705 214.661 773.631 214.605 773.517 214.626 773.353 214.608 773.397 214.746 772.99 214.467 773.366 214.062 773.632 213.847 773.887 214.106 773.852 214.435 773.806 214.834Z" fill="#00366F" fill-rule="evenodd" fill-opacity="1"/><path d="M753.575 218.068C753.245 218.073 753.313 218.29 753.005 218.332 753.061 218.064 752.737 217.654 752.771 217.378 753.038 217.28 753.591 217.626 753.575 218.068Z" fill="#00366F" fill-rule="evenodd" fill-opacity="1"/><path d="M753.733 218.768C752.703 218.669 751.448 219.178 750.731 218.238 751.039 217.963 751.356 218.289 751.706 218.155 752.35 218.419 753.123 218.337 753.736 218.687 753.761 218.724 753.754 218.75 753.733 218.768Z" fill="#00366F" fill-rule="evenodd" fill-opacity="1"/><path d="M751.573 220.33C751.724 220.342 752.036 220.249 752.155 220.103 752.144 219.882 751.884 219.947 751.918 219.848 752.152 219.813 752.447 219.613 752.667 219.623 752.746 218.943 751.782 219.238 751.406 219.266 751.306 219.217 751.369 219.088 751.252 219.015 750.841 219.351 750.456 219.908 750.666 220.298 750.394 220.312 750.078 220.435 749.856 220.306 749.753 220.52 749.6 220.812 749.802 220.981 750.08 220.916 750.274 220.805 750.504 220.741 750.755 220.956 750.616 221.373 750.891 221.499 751.303 221.182 751.253 220.688 751.573 220.33ZM750.703 220.65C750.819 220.609 750.851 220.495 750.942 220.375 750.911 220.264 750.813 220.321 750.747 220.305 751.035 220.16 751.239 219.867 751.391 219.764 751.362 219.949 751.02 220.07 751.259 220.273 751.131 220.445 751.092 220.655 750.895 220.806 750.843 220.724 750.749 220.753 750.703 220.65Z" fill="#00366F" fill-rule="evenodd" fill-opacity="1"/><path d="M752.081 221.495C751.544 221.637 751.625 220.812 751.831 220.53 752.324 220.479 752.321 221.259 752.081 221.495Z" fill="#00366F" fill-rule="evenodd" fill-opacity="1"/><path d="M757.356 221.516C757.673 221.466 758.071 221.314 758.459 221.555 758.441 221.613 758.459 221.654 758.503 221.681 758.438 221.965 758.256 222.048 758.069 222.132 757.578 221.962 757.281 222.068 756.9 222.189 756.197 222.185 755.988 222.234 755.284 221.783 755.477 221.406 756.018 221.634 756.384 221.554 756.781 221.215 757.216 220.943 757.476 220.371 757.205 220.298 756.404 220.537 756.344 220.022 756.919 219.86 757.638 219.937 758.138 219.643 758.495 219.723 758.615 219.934 758.686 220.171 758.221 220.585 757.693 221.047 757.356 221.516Z" fill="#00366F" fill-rule="evenodd" fill-opacity="1"/><path d="M746.125 217.643C746.205 217.979 746.731 218.004 747.17 218.094 747.22 218.247 747.248 218.288 747.177 218.474 746.644 218.676 745.872 218.217 745.555 217.882 745.623 217.326 745.919 217.128 746.271 216.807 746.882 216.252 747.582 215.659 748.218 215.203 748.242 215.075 748.248 214.914 748.351 214.89 748.721 215.016 748.703 215.47 748.532 215.751 748.392 215.98 747.923 216.001 747.911 216.277 748.091 216.407 748.953 216.265 748.837 216.78 748.464 217.129 747.893 216.658 747.512 216.618 746.978 216.855 746.501 217.18 746.125 217.643Z" fill="#00366F" fill-rule="evenodd" fill-opacity="1"/><path d="M744.512 217.203C744.446 216.978 744.65 216.884 744.741 216.756 744.492 216.774 744.152 216.902 743.929 216.683 743.854 216.272 744.175 216.258 744.417 216.057 744.766 215.775 744.921 215.365 745.323 215.208 745.411 215.063 745.284 214.79 745.432 214.813 745.647 214.638 745.839 215.174 745.972 215.361 746.416 214.976 746.804 214.507 747.306 214.214 747.328 214.84 747.026 215.118 746.695 215.531 746.462 215.814 746.257 216.154 746.006 216.42 745.873 216.563 745.617 216.685 745.442 216.845 745.156 217.101 745.006 217.424 744.512 217.203ZM744.908 216.259C745.146 216.252 745.499 216.167 745.46 215.909 745.253 215.96 744.9 216.048 744.908 216.259Z" fill="#00366F" fill-rule="evenodd" fill-opacity="1"/><path d="M742.379 210.218 740.145 211.367 739.75 210.602C739.511 210.132 739.576 209.789 739.95 209.567 740.189 209.457 740.41 209.494 740.621 209.683L740.632 209.677C740.563 209.342 740.679 209.09 740.98 208.929 741.354 208.763 741.688 208.938 741.983 209.453L742.379 210.218ZM740.639 210.132C740.54 209.943 740.407 209.89 740.236 209.978 740.062 210.068 740.021 210.207 740.12 210.397L740.294 210.74 740.815 210.473 740.639 210.132ZM741.603 209.634C741.496 209.383 741.339 209.317 741.134 209.432 740.913 209.536 740.872 209.703 741.012 209.937L741.188 210.276 741.78 209.974 741.603 209.634Z" fill="#00366F" fill-rule="nonzero" fill-opacity="1"/><path d="M739.113 209.285 738.55 207.864 738.941 207.709 739.321 208.671 739.863 208.456 739.511 207.562 739.901 207.409 740.256 208.304 740.871 208.057 740.478 207.059 740.87 206.907 741.446 208.362 739.113 209.285Z" fill="#00366F" fill-rule="nonzero" fill-opacity="1"/><path d="M740.607 206.057 740.758 206.531 738.363 207.286 738.214 206.817 740.607 206.057Z" fill="#00366F" fill-rule="nonzero" fill-opacity="1"/><path d="M737.724 204.946 739.356 204.547C739.898 204.422 740.235 204.601 740.37 205.086 740.493 205.555 740.288 205.864 739.748 206.024L739.631 205.545C739.93 205.474 740.058 205.349 740.013 205.172 739.976 205.015 739.804 204.959 739.499 205.006 739.481 205.012 739.469 205.015 739.459 205.017L737.838 205.415 737.724 204.946Z" fill="#00366F" fill-rule="nonzero" fill-opacity="1"/><path d="M740.004 203.45 740.09 203.939 737.614 204.369 737.532 203.884 740.004 203.45Z" fill="#00366F" fill-rule="nonzero" fill-opacity="1"/><path d="M739.799 201.696 737.797 202.767 737.811 202.779 739.881 202.595 739.919 203.049 737.418 203.272 737.356 202.546 739.252 201.512 739.237 201.5 737.278 201.675 737.237 201.219 739.739 200.998 739.799 201.696Z" fill="#00366F" fill-rule="nonzero" fill-opacity="1"/><path d="M738.842 199.493 738.422 199.48 738.454 198.554 739.714 198.596C739.763 198.763 739.785 198.931 739.778 199.104 739.793 199.236 739.795 199.411 739.788 199.622 739.721 200.323 739.284 200.665 738.477 200.653 737.655 200.611 737.229 200.24 737.197 199.537 737.22 198.821 737.505 198.478 738.047 198.503L738.03 199.019C737.749 199.013 737.605 199.161 737.594 199.464 737.589 199.883 737.889 200.109 738.494 200.136 739.092 200.149 739.405 199.947 739.425 199.527 739.429 199.402 739.416 199.257 739.384 199.093 739.394 199.102 739.394 199.094 739.387 199.069L738.856 199.05 738.842 199.493Z" fill="#00366F" fill-rule="nonzero" fill-opacity="1"/><path d="M737.641 195.94 738.068 194.138 738.478 194.237 738.32 194.896 740.352 195.377 740.238 195.86 738.206 195.378 738.048 196.036 737.641 195.94Z" fill="#00366F" fill-rule="nonzero" fill-opacity="1"/><path d="M738.206 193.689 738.699 192.243 739.097 192.379 738.762 193.359 739.317 193.547 739.626 192.635 740.023 192.773 739.713 193.683 740.342 193.896 740.688 192.881 741.087 193.016 740.58 194.501 738.206 193.689Z" fill="#00366F" fill-rule="nonzero" fill-opacity="1"/><path d="M740.224 190.773C739.939 190.662 739.732 190.73 739.607 190.981 739.512 191.235 739.732 191.494 740.267 191.759 740.808 191.985 741.144 191.983 741.273 191.742 741.385 191.477 741.303 191.275 741.026 191.141L741.241 190.667C741.734 190.92 741.855 191.328 741.607 191.893 741.335 192.448 740.817 192.557 740.051 192.228 739.289 191.852 739.02 191.38 739.25 190.817 739.512 190.265 739.906 190.094 740.44 190.301L740.224 190.773Z" fill="#00366F" fill-rule="nonzero" fill-opacity="1"/><path d="M742.123 190.743 739.966 189.46 740.21 189.048 741.064 189.554 741.505 188.808 740.654 188.304 740.904 187.879 743.061 189.164 742.815 189.577 741.871 189.015 741.426 189.766 742.369 190.329 742.123 190.743Z" fill="#00366F" fill-rule="nonzero" fill-opacity="1"/><path d="M744.118 187.741 741.919 187.174 741.921 187.193 743.569 188.457 743.291 188.818 741.3 187.292 741.741 186.714 743.839 187.235 743.839 187.216 742.275 186.019 742.554 185.656 744.545 187.184 744.118 187.741Z" fill="#00366F" fill-rule="nonzero" fill-opacity="1"/><path d="M743.856 186.067C743.262 185.448 743.206 184.88 743.689 184.361 744.191 183.875 744.76 183.923 745.389 184.509 745.963 185.11 746.015 185.665 745.536 186.175 745.023 186.675 744.463 186.639 743.856 186.067ZM744.223 185.696C744.653 186.121 745.006 186.194 745.275 185.921 745.541 185.654 745.455 185.305 745.025 184.879 744.587 184.449 744.233 184.368 743.967 184.637 743.698 184.912 743.783 185.266 744.223 185.696Z" fill="#00366F" fill-rule="nonzero" fill-opacity="1"/><path d="M746.559 185.157 744.962 183.22 745.334 182.915 746.663 184.526 747.423 183.9 747.691 184.225 746.559 185.157Z" fill="#00366F" fill-rule="nonzero" fill-opacity="1"/><path d="M747.156 183.053C746.706 182.32 746.77 181.751 747.349 181.349 747.942 180.978 748.487 181.146 748.98 181.849 749.419 182.558 749.352 183.108 748.778 183.51 748.171 183.889 747.63 183.736 747.156 183.053ZM747.59 182.765C747.924 183.273 748.255 183.419 748.576 183.205 748.892 182.996 748.882 182.638 748.548 182.134 748.208 181.618 747.882 181.467 747.565 181.676 747.243 181.89 747.252 182.252 747.59 182.765Z" fill="#00366F" fill-rule="nonzero" fill-opacity="1"/><path d="M750.527 181.414 750.337 181.036 751.167 180.623 751.729 181.753C751.605 181.875 751.466 181.976 751.314 182.052 751.202 182.126 751.052 182.211 750.86 182.308 750.213 182.579 749.704 182.356 749.331 181.645 748.979 180.901 749.103 180.346 749.705 179.987 750.347 179.669 750.784 179.752 751.017 180.24L750.555 180.475C750.431 180.224 750.23 180.165 749.958 180.3 749.587 180.496 749.531 180.867 749.796 181.414 750.069 181.944 750.395 182.12 750.776 181.942 750.886 181.886 751.006 181.808 751.137 181.7 751.135 181.712 751.141 181.705 751.159 181.688L750.922 181.216 750.527 181.414Z" fill="#00366F" fill-rule="nonzero" fill-opacity="1"/><path d="M752.462 180.687 751.147 179.361 751.691 179.161 752.53 180.084 752.582 178.834 753.048 178.665 752.912 180.52 753.193 181.283 752.74 181.451 752.462 180.687Z" fill="#00366F" fill-rule="nonzero" fill-opacity="1"/><path d="M755.751 180.541 756.188 177.933 756.762 177.845 757.934 180.207 757.447 180.28 757.197 179.784 756.306 179.923 756.215 180.47 755.751 180.541ZM757.011 179.388 756.543 178.373 756.53 178.375 756.363 179.485 757.011 179.388Z" fill="#00366F" fill-rule="nonzero" fill-opacity="1"/><path d="M759.522 180.146 758.564 178.088 758.554 178.101 758.623 180.176 758.166 180.19 758.082 177.68 758.81 177.658 759.741 179.608 759.752 179.596 759.687 177.628 760.142 177.613 760.225 180.122 759.522 180.146Z" fill="#00366F" fill-rule="nonzero" fill-opacity="1"/><path d="M760.828 177.638 761.6 177.703C762.353 177.776 762.7 178.228 762.637 179.057 762.56 179.877 762.147 180.263 761.39 180.205L760.613 180.14 760.828 177.638ZM761.129 179.761 761.388 179.782C761.835 179.838 762.084 179.583 762.12 179.013 762.178 178.437 761.981 178.138 761.528 178.117L761.27 178.095 761.129 179.761Z" fill="#00366F" fill-rule="nonzero" fill-opacity="1"/><path d="M764.667 180.717 765.369 178.304 766.198 178.547C766.703 178.693 766.908 178.979 766.809 179.402 766.728 179.651 766.547 179.788 766.265 179.81L766.263 179.824C766.555 180.002 766.656 180.259 766.565 180.588 766.428 180.974 766.071 181.095 765.495 180.957L764.667 180.717ZM765.624 180.555C765.88 180.648 766.036 180.581 766.094 180.353 766.17 180.121 766.074 179.977 765.81 179.918L765.443 179.81 765.255 180.448 765.624 180.555ZM765.928 179.514C766.134 179.572 766.262 179.514 766.316 179.328 766.37 179.138 766.298 179.014 766.092 178.953L765.725 178.847 765.561 179.408 765.928 179.514Z" fill="#00366F" fill-rule="nonzero" fill-opacity="1"/><path d="M769.5 179.772 768.892 181.224C768.628 181.789 768.199 181.961 767.608 181.732 767.016 181.466 766.834 181.041 767.058 180.46L767.665 179.006 768.121 179.197 767.593 180.463C767.47 180.734 767.42 180.933 767.449 181.064 767.475 181.21 767.575 181.32 767.75 181.394 767.926 181.467 768.071 181.46 768.188 181.373 768.299 181.298 768.407 181.126 768.517 180.846L769.042 179.583 769.5 179.772Z" fill="#00366F" fill-rule="nonzero" fill-opacity="1"/><path d="M770.865 181.32C770.979 181.095 770.934 180.922 770.726 180.81 770.508 180.707 770.347 180.741 770.245 180.912 770.135 181.071 770.202 181.24 770.437 181.425 770.445 181.427 770.462 181.444 770.486 181.467 770.893 181.833 771.012 182.16 770.838 182.459 770.575 182.911 770.16 182.99 769.591 182.695 769.073 182.406 768.953 182.023 769.228 181.544L769.66 181.785C769.517 182.037 769.556 182.236 769.768 182.374 770.033 182.509 770.217 182.49 770.324 182.311 770.409 182.162 770.342 181.991 770.121 181.791 770.089 181.766 770.068 181.744 770.059 181.727 769.681 181.374 769.574 181.048 769.738 180.755 770.009 180.319 770.42 180.233 770.97 180.498 771.387 180.759 771.489 181.112 771.272 181.552L770.865 181.32Z" fill="#00366F" fill-rule="nonzero" fill-opacity="1"/><path d="M771.158 183.62 770.746 183.347 772.128 181.251 772.541 181.523 771.158 183.62Z" fill="#00366F" fill-rule="nonzero" fill-opacity="1"/><path d="M772.574 184.673 773.17 182.481 773.15 182.484 771.867 184.116 771.506 183.833 773.061 181.859 773.632 182.312 773.086 184.402 773.107 184.399 774.321 182.853 774.68 183.135 773.129 185.108 772.574 184.673Z" fill="#00366F" fill-rule="nonzero" fill-opacity="1"/><path d="M775.154 183.571 776.244 184.643 775.948 184.944 775.209 184.215 774.801 184.632 775.489 185.306 775.193 185.606 774.506 184.932 774.043 185.407 774.806 186.159 774.511 186.46 773.395 185.361 775.154 183.571Z" fill="#00366F" fill-rule="nonzero" fill-opacity="1"/><path d="M776.936 186.538C777.127 186.369 777.146 186.194 776.992 186.013 776.825 185.839 776.664 185.813 776.505 185.935 776.351 186.044 776.348 186.225 776.503 186.483 776.507 186.489 776.518 186.506 776.533 186.538 776.783 187.026 776.776 187.377 776.505 187.588 776.095 187.918 775.678 187.84 775.254 187.36 774.878 186.905 774.902 186.504 775.331 186.154L775.648 186.534C775.424 186.721 775.388 186.916 775.537 187.125 775.733 187.345 775.913 187.393 776.079 187.269 776.213 187.157 776.21 186.969 776.074 186.711 776.054 186.672 776.045 186.644 776.041 186.624 775.818 186.158 775.835 185.818 776.092 185.603 776.506 185.291 776.919 185.359 777.335 185.806 777.631 186.202 777.597 186.566 777.237 186.897L776.936 186.538Z" fill="#00366F" fill-rule="nonzero" fill-opacity="1"/><path d="M778.273 188.393C778.477 188.248 778.514 188.074 778.383 187.874 778.235 187.685 778.074 187.645 777.904 187.749 777.737 187.839 777.719 188.02 777.845 188.293 777.848 188.3 777.856 188.32 777.868 188.352 778.067 188.86 778.019 189.207 777.728 189.39 777.289 189.679 776.882 189.558 776.512 189.035 776.182 188.541 776.25 188.145 776.712 187.847L776.99 188.258C776.748 188.418 776.689 188.609 776.818 188.832 776.99 189.075 777.162 189.138 777.341 189.029 777.484 188.932 777.501 188.75 777.393 188.476 777.38 188.436 777.369 188.408 777.369 188.389 777.196 187.901 777.247 187.563 777.527 187.378 777.969 187.112 778.375 187.222 778.743 187.707 778.994 188.133 778.924 188.492 778.531 188.785L778.273 188.393Z" fill="#00366F" fill-rule="nonzero" fill-opacity="1"/><path d="M781.184 192.661 779.726 193.255C779.14 193.466 778.718 193.282 778.462 192.705 778.234 192.093 778.405 191.664 778.978 191.414L780.435 190.821 780.622 191.279 779.353 191.794C779.07 191.9 778.896 192.007 778.823 192.118 778.736 192.241 778.729 192.39 778.801 192.567 778.872 192.741 778.981 192.84 779.126 192.86 779.255 192.889 779.456 192.84 779.728 192.721L780.998 192.205 781.184 192.661Z" fill="#00366F" fill-rule="nonzero" fill-opacity="1"/><path d="M779.355 195.33 781.142 193.926 781.124 193.917 779.121 194.461 779 194.021 781.423 193.361 781.614 194.063 779.929 195.417 779.944 195.425 781.844 194.909 781.964 195.349 779.54 196.006 779.355 195.33Z" fill="#00366F" fill-rule="nonzero" fill-opacity="1"/><path d="M779.687 196.889 779.599 196.404 782.068 195.952 782.155 196.435 779.687 196.889Z" fill="#00366F" fill-rule="nonzero" fill-opacity="1"/><path d="M782.25 196.865 782.305 197.394 780.394 198.187 780.395 198.196 782.428 198.585 782.475 199.064 779.892 198.486 779.84 197.955 782.25 196.865Z" fill="#00366F" fill-rule="nonzero" fill-opacity="1"/><path d="M782.483 199.536 782.477 201.067 782.057 201.065 782.06 200.028 781.477 200.027 781.47 200.99 781.051 200.988 781.055 200.028 780.389 200.023 780.386 201.1 779.966 201.098 779.972 199.531 782.483 199.536Z" fill="#00366F" fill-rule="nonzero" fill-opacity="1"/><path d="M779.898 201.951 779.951 201.463 782.447 201.722 782.347 202.692C782.283 203.208 782.04 203.448 781.617 203.41 781.293 203.369 781.109 203.19 781.058 202.88L781.044 202.878C781.01 203.132 780.811 203.247 780.451 203.227 780.413 203.231 780.385 203.234 780.366 203.231 780.066 203.223 779.866 203.245 779.761 203.29L779.814 202.765C780.04 202.739 780.265 202.734 780.498 202.75 780.718 202.752 780.835 202.697 780.844 202.575L780.899 202.059 779.898 201.951ZM781.316 202.099 781.273 202.505C781.251 202.734 781.355 202.861 781.589 202.885 781.807 202.908 781.92 202.804 781.935 202.575L781.978 202.169 781.316 202.099Z" fill="#00366F" fill-rule="nonzero" fill-opacity="1"/><path d="M781.209 205.136C781.46 205.178 781.607 205.086 781.657 204.854 781.691 204.615 781.607 204.471 781.416 204.422 781.233 204.369 781.089 204.48 780.983 204.76 780.98 204.768 780.973 204.786 780.958 204.818 780.73 205.316 780.452 205.528 780.119 205.45 779.604 205.334 779.408 204.957 779.522 204.325 779.645 203.747 779.975 203.519 780.513 203.641L780.41 204.121C780.127 204.06 779.95 204.157 779.881 204.399 779.829 204.691 779.902 204.864 780.104 204.915 780.272 204.949 780.417 204.834 780.541 204.564 780.557 204.525 780.573 204.501 780.583 204.486 780.812 204.022 781.09 203.824 781.417 203.892 781.915 204.025 782.121 204.389 782.031 204.996 781.9 205.471 781.595 205.669 781.113 205.594L781.209 205.136Z" fill="#00366F" fill-rule="nonzero" fill-opacity="1"/><path d="M779.099 206.096 779.236 205.618 781.648 206.32 781.51 206.796 779.099 206.096Z" fill="#00366F" fill-rule="nonzero" fill-opacity="1"/><path d="M781.4 207.205 780.76 208.94 780.365 208.796 780.6 208.158 778.64 207.434 778.809 206.969 780.77 207.694 781.004 207.057 781.4 207.205Z" fill="#00366F" fill-rule="nonzero" fill-opacity="1"/><path d="M778.771 209.201 780.636 209.246 780.383 209.766 779.141 209.683 779.967 210.62 779.752 211.064 778.561 209.634 777.828 209.279 778.041 208.845 778.771 209.201Z" fill="#00366F" fill-rule="nonzero" fill-opacity="1"/><path d="M749.588 214.428C749.575 214.431 749.561 214.433 749.547 214.436 749.973 214.743 750.413 215.03 750.866 215.298 750.882 215.295 750.896 215.291 750.912 215.288 750.458 215.02 750.016 214.734 749.588 214.428Z" fill="#00366F" fill-rule="nonzero" fill-opacity="1"/><path d="M747.403 212.6C747.392 212.603 747.381 212.605 747.371 212.607 747.596 212.832 747.839 213.036 748.075 213.248 748.087 213.246 748.098 213.244 748.11 213.242 747.872 213.03 747.629 212.823 747.403 212.6Z" fill="#00366F" fill-rule="nonzero" fill-opacity="1"/><path d="M742.479 203.529C743.101 206.601 744.523 209.378 746.504 211.657 746.513 211.655 746.52 211.652 746.529 211.65 744.542 209.375 743.11 206.602 742.479 203.529Z" fill="#00366F" fill-rule="nonzero" fill-opacity="1"/><path d="M759.96 217.771C757.224 217.771 754.642 217.137 752.324 216.037 752.303 216.04 752.282 216.043 752.261 216.046 754.595 217.167 757.201 217.814 759.964 217.814 762.373 217.814 764.667 217.33 766.764 216.464 766.703 216.472 766.643 216.481 766.583 216.488 764.533 217.307 762.302 217.771 759.96 217.771Z" fill="#00366F" fill-rule="nonzero" fill-opacity="1"/><path d="M774.609 210.14C775.966 208.189 776.95 205.958 777.441 203.546 776.941 205.972 775.939 208.21 774.563 210.167 774.579 210.158 774.594 210.148 774.609 210.14Z" fill="#00366F" fill-rule="nonzero" fill-opacity="1"/><path d="M760.197 215.289C760.197 215.289 765.919 216.282 770.563 214.25 765.18 215.61 758.506 214.315 758.506 214.315 754.876 213.767 751.82 214.013 749.588 214.427 750.016 214.734 750.458 215.019 750.913 215.287 753.286 214.831 756.378 214.657 760.197 215.289Z" fill="#00366F" fill-rule="nonzero" fill-opacity="1"/><path d="M763.59 207.582C763.537 207.588 763.384 207.674 763.384 208.437 763.384 209.21 763.545 209.278 763.594 209.278 763.636 209.278 763.797 209.207 763.797 208.437 763.797 207.674 763.643 207.588 763.59 207.582Z" fill="#00366F" fill-rule="nonzero" fill-opacity="1"/><path d="M758.987 207.582C758.917 207.582 758.757 207.587 758.757 207.946 758.757 208.276 758.92 208.276 758.989 208.276 759.038 208.275 759.185 208.268 759.195 207.941 759.182 207.597 759.042 207.587 758.987 207.582Z" fill="#00366F" fill-rule="nonzero" fill-opacity="1"/><path d="M759.305 213.303C759.305 213.303 768.158 215.139 773.004 211.976 766.9 214.383 759.296 212.537 759.296 212.537L759.282 212.534C754.497 211.54 750.476 211.879 747.403 212.6 747.629 212.824 747.872 213.031 748.109 213.242 751.008 212.811 755.079 212.53 759.305 213.303Z" fill="#00366F" fill-rule="nonzero" fill-opacity="1"/><path d="M760.066 216.322C756.807 215.738 754.271 215.759 752.324 216.036 754.642 217.137 757.224 217.77 759.96 217.77 762.302 217.77 764.533 217.306 766.583 216.487 763.083 216.937 760.066 216.322 760.066 216.322Z" fill="#00366F" fill-rule="nonzero" fill-opacity="1"/><path d="M759.96 182.074C750.104 182.074 742.115 190.064 742.115 199.923 742.115 201.158 742.241 202.364 742.48 203.529 742.248 202.38 742.124 201.19 742.124 199.972 742.124 190.121 750.113 182.135 759.965 182.135 769.814 182.135 777.801 190.121 777.801 199.972 777.801 201.196 777.676 202.391 777.442 203.545 777.683 202.375 777.811 201.163 777.811 199.922 777.811 190.064 769.818 182.074 759.96 182.074Z" fill="#00366F" fill-rule="nonzero" fill-opacity="1"/><path d="M759.964 182.136C750.112 182.136 742.123 190.122 742.123 199.973 742.123 201.191 742.247 202.38 742.479 203.53 743.109 206.602 744.541 209.376 746.529 211.651 749.848 210.769 754.371 210.329 759.96 211.555 759.96 211.555 768.631 213.644 774.564 210.167 775.94 208.21 776.941 205.972 777.442 203.546 777.676 202.392 777.801 201.196 777.801 199.973 777.8 190.122 769.813 182.136 759.964 182.136ZM759.102 183.496C759.102 183.496 759.351 183.203 759.625 183.5L766.224 190.289 764.786 191.709 759.341 186.109 755.024 190.394 759.022 194.529 760.441 193.127 758.225 190.85 759.665 189.431 763.289 193.159 758.988 197.402 752.147 190.327 759.102 183.496ZM757.379 209.767 756.7 209.767 756.7 207.898C756.573 207.987 756.434 208.062 756.288 208.125L756.163 208.177 756.163 207.494 756.212 207.472C756.41 207.372 756.598 207.254 756.773 207.116L756.798 207.098 757.379 207.098 757.379 209.767ZM759.679 209.416C759.525 209.669 759.282 209.796 758.95 209.796L758.918 209.796C758.258 209.796 758.11 209.397 758.104 209.061L758.104 208.968 758.768 208.968 758.781 209.042C758.819 209.278 758.909 209.278 758.936 209.278 758.998 209.278 759.042 209.261 759.078 209.221 759.133 209.163 759.194 209.037 759.198 208.743 759.086 208.804 758.964 208.829 758.83 208.819 758.375 208.769 758.114 208.481 758.068 207.981L758.068 207.971 758.068 207.965C758.105 207.398 758.411 207.08 758.957 207.039L758.984 207.037C759.236 207.037 759.438 207.112 759.585 207.26 759.781 207.46 759.877 207.788 759.872 208.24 759.88 208.801 759.818 209.185 759.679 209.416ZM761.399 209.796 761.395 209.796 761.391 209.796C760.72 209.783 760.561 209.389 760.548 209.061L760.543 208.968 761.201 208.968 761.21 209.047C761.235 209.242 761.328 209.273 761.405 209.278 761.465 209.277 761.627 209.257 761.648 208.833 761.629 208.533 761.51 208.482 761.418 208.472 761.356 208.477 761.272 208.509 761.222 208.687L761.202 208.755 760.556 208.734 760.628 207.096 762.185 207.096 762.185 207.622 761.222 207.622 761.207 208.008C761.303 207.954 761.413 207.925 761.534 207.925 761.885 207.94 762.303 208.116 762.314 208.874 762.267 209.441 761.95 209.754 761.399 209.796ZM763.58 209.796 763.577 209.796 763.575 209.796C763.018 209.783 762.724 209.327 762.708 208.44 762.724 207.519 763.018 207.049 763.575 207.04 764.164 207.05 764.468 207.519 764.487 208.438 764.478 209.327 764.172 209.783 763.58 209.796ZM776.04 200.499 768.315 208.249 762.542 202.439 767.318 197.72 770.135 200.638 768.638 202.103 767.283 200.696 765.507 202.451 768.318 205.28 773.349 200.231 767.46 194.638 753.103 208.865 744.289 199.899 743.814 199.418C743.814 199.418 743.539 199.174 743.82 198.896L744.296 198.423 751.124 191.669 757.601 198.336 753.2 202.649 749.812 199.173 751.3 197.7 753.229 199.675 754.649 198.305 751.094 194.639 746.5 199.184 753.132 205.892 767.479 191.678 776.046 199.994C776.046 199.994 776.337 200.226 776.04 200.499Z" fill="#00366F" fill-rule="nonzero" fill-opacity="1"/><path d="M773.352 211.732C773.526 211.535 773.675 211.316 773.841 211.112 773.648 211.349 773.451 211.584 773.247 211.811 773.283 211.786 773.317 211.759 773.352 211.732Z" fill="#00366F" fill-rule="nonzero" fill-opacity="1"/><path d="M774.059 210.837C774.242 210.604 774.44 210.384 774.61 210.14 774.594 210.149 774.579 210.159 774.564 210.167 774.402 210.396 774.231 210.617 774.059 210.837Z" fill="#00366F" fill-rule="nonzero" fill-opacity="1"/><path d="M746.529 211.65C746.52 211.652 746.513 211.655 746.504 211.657 746.785 211.981 747.067 212.304 747.371 212.606 747.381 212.604 747.392 212.602 747.403 212.599 747.098 212.297 746.813 211.975 746.529 211.65Z" fill="#00366F" fill-rule="nonzero" fill-opacity="1"/><path d="M774.059 210.837C773.987 210.93 773.915 211.022 773.842 211.112 773.915 211.021 773.987 210.93 774.059 210.837Z" fill="#00366F" fill-rule="nonzero" fill-opacity="1"/><path d="M748.109 213.241C748.097 213.243 748.086 213.245 748.074 213.247 748.544 213.668 749.034 214.065 749.547 214.435 749.561 214.432 749.574 214.43 749.588 214.427 749.073 214.059 748.582 213.662 748.109 213.241Z" fill="#00366F" fill-rule="nonzero" fill-opacity="1"/><path d="M770.585 214.24C770.63 214.22 770.674 214.2 770.718 214.18 771.62 213.495 772.452 212.73 773.208 211.891 773.19 211.898 773.172 211.906 773.155 211.912 772.375 212.77 771.517 213.548 770.585 214.24Z" fill="#00366F" fill-rule="nonzero" fill-opacity="1"/><path d="M773.155 211.913C773.173 211.906 773.191 211.898 773.208 211.892 773.255 211.838 773.305 211.787 773.352 211.733 773.317 211.759 773.283 211.787 773.248 211.812 773.217 211.846 773.186 211.879 773.155 211.913Z" fill="#00366F" fill-rule="nonzero" fill-opacity="1"/><path d="M773.248 211.812C773.168 211.869 773.086 211.922 773.004 211.976 773.055 211.955 773.105 211.934 773.155 211.913 773.186 211.879 773.217 211.846 773.248 211.812Z" fill="#00366F" fill-rule="nonzero" fill-opacity="1"/><path d="M750.913 215.288C750.897 215.291 750.883 215.295 750.867 215.298 751.32 215.568 751.784 215.816 752.262 216.045 752.283 216.042 752.304 216.039 752.325 216.036 751.841 215.807 751.371 215.559 750.913 215.288Z" fill="#00366F" fill-rule="nonzero" fill-opacity="1"/><path d="M766.583 216.487C766.643 216.479 766.704 216.47 766.764 216.463 768.162 215.885 769.461 215.125 770.654 214.229 770.629 214.236 770.602 214.241 770.577 214.248 769.354 215.154 768.017 215.913 766.583 216.487Z" fill="#00366F" fill-rule="nonzero" fill-opacity="1"/><path d="M770.576 214.247C770.601 214.24 770.628 214.235 770.653 214.228 770.674 214.212 770.696 214.196 770.717 214.18 770.673 214.2 770.629 214.22 770.584 214.24 770.582 214.242 770.579 214.245 770.576 214.247Z" fill="#00366F" fill-rule="nonzero" fill-opacity="1"/><path d="M770.576 214.247C770.579 214.245 770.582 214.242 770.585 214.24 770.578 214.243 770.57 214.247 770.564 214.25 770.567 214.249 770.572 214.248 770.576 214.247Z" fill="#00366F" fill-rule="nonzero" fill-opacity="1"/></g></g></g></g></g></svg>