<?xml version="1.0" encoding="utf-8"?>
<!-- Generator: Adobe Illustrator 27.5.0, SVG Export Plug-In . SVG Version: 6.00 Build 0)  -->
<svg version="1.1" id="Layer_1" xmlns="http://www.w3.org/2000/svg" xmlns:xlink="http://www.w3.org/1999/xlink" x="0px" y="0px"
	 viewBox="0 0 436.7 21.8" style="enable-background:new 0 0 436.7 21.8;" xml:space="preserve">
<style type="text/css">
	.st0{fill:#FFFFFF;}
</style>
<g>
	<path class="st0" d="M19.1,19.3c-2.8,1.7-5.5,2.5-8.9,2.5C3.9,21.8,0,17.9,0,10.9C0,3.9,3.9,0,10.6,0c2.6,0,5.4,0.7,7.8,1.9
		l-1.5,3.6c-2.4-0.8-4.3-1.1-6.1-1.1c-3.9,0-6,2.2-6,6.6c0,3.9,2.2,6.5,5.6,6.5c2.6,0,4.4-0.5,7-1.7L19.1,19.3z"/>
	<path class="st0" d="M44.9,10.9c0,6.9-3.9,10.8-10.5,10.8c-6.6,0-10.5-3.9-10.5-10.8C24,3.9,27.9,0,34.5,0C41,0,44.9,3.9,44.9,10.9
		z M40,10.9c0-4.4-2-6.6-5.6-6.6s-5.6,2.2-5.6,6.6c0,4.3,2,6.5,5.6,6.5S40,15.2,40,10.9z"/>
	<path class="st0" d="M51.4,21.5V0.3h4.8V17H66v4.4H51.4z"/>
	<path class="st0" d="M72.3,21.5V0.3h4.8V17h9.7v4.4H72.3z"/>
	<path class="st0" d="M93.1,21.5V0.3h15.1v4.4H97.9v4.2h8.9v4.2h-8.9v4h10.6v4.3H93.1z"/>
	<path class="st0" d="M134.4,19.1c-3.6,1.9-6.6,2.7-10.1,2.7c-6.2,0-10.1-3.9-10.1-10.8c0-6.6,4.1-10.9,10.4-10.9
		c2.7,0,6.1,0.6,8.9,1.8l-1.2,3.7c-2.5-0.8-4.7-1.2-7.2-1.2c-3.7,0-5.9,2.6-5.9,6.7c0,4.3,2,6.5,5.4,6.5c2,0,3.7-0.2,5.6-1.1v-2.7
		h-6V9.8h10.2V19.1z"/>
	<path class="st0" d="M141.5,21.5V0.3h15.1v4.4h-10.3v4.2h8.9v4.2h-8.9v4h10.6v4.3H141.5z"/>
	<path class="st0" d="M195,10.9c0,6.9-3.9,10.8-10.5,10.8c-6.6,0-10.5-3.9-10.5-10.8c0-7,3.9-10.9,10.5-10.9
		C191.1,0,195,3.9,195,10.9z M190.1,10.9c0-4.4-2-6.6-5.6-6.6s-5.6,2.2-5.6,6.6c0,4.3,2,6.5,5.6,6.5S190.1,15.2,190.1,10.9z"/>
	<path class="st0" d="M215,9.8v4.2h-8.7v7.4h-4.8V0.3h14.8v4.4h-10v5.1H215z"/>
	<path class="st0" d="M233.8,21.5V0.3h15.1v4.4h-10.3v4.2h8.9v4.2h-8.9v4h10.6v4.3H233.8z"/>
	<path class="st0" d="M263.2,0.3c7.5,0,11.9,4.1,11.9,10.5c0,6.5-4.4,10.6-11.9,10.6H256V0.3H263.2z M263.2,17.2c4.6,0,7-2.1,7-6.3
		c0-4.2-2.3-6.2-7-6.2h-2.4v12.5H263.2z"/>
	<path class="st0" d="M300.4,11.6c0,6.8-3.2,10.2-9.5,10.2c-6.2,0-9.4-3.4-9.4-10.2V0.3h4.8v11.2c0,3.9,1.6,5.9,4.6,5.9
		c3,0,4.6-1.9,4.6-5.9V0.3h4.8V11.6z"/>
	<path class="st0" d="M325.8,19.3c-2.8,1.7-5.5,2.5-8.9,2.5c-6.4,0-10.3-3.9-10.3-10.8c0-7,3.9-10.9,10.6-10.9
		c2.6,0,5.4,0.7,7.8,1.9l-1.5,3.6c-2.4-0.8-4.3-1.1-6.1-1.1c-3.9,0-6,2.2-6,6.6c0,3.9,2.2,6.5,5.6,6.5c2.6,0,4.4-0.5,7-1.7
		L325.8,19.3z"/>
	<path class="st0" d="M335.7,21.5h-5.2l8.2-21.1h6.5l8.2,21.1h-5.2l-1.5-3.9h-9.6L335.7,21.5z M342.6,6.3c-0.3-0.9-0.5-1.6-0.7-2.1
		c-0.2,0.6-0.4,1.3-0.7,2.1l-2.5,6.8h6.4L342.6,6.3z"/>
	<path class="st0" d="M366.2,4.7v16.7h-4.8V4.7h-6.8V0.3H373v4.4H366.2z"/>
	<path class="st0" d="M378.8,21.5V0.3h4.8v21.1H378.8z"/>
	<path class="st0" d="M411.1,10.9c0,6.9-3.9,10.8-10.5,10.8c-6.6,0-10.5-3.9-10.5-10.8c0-7,3.9-10.9,10.5-10.9
		C407.2,0,411.1,3.9,411.1,10.9z M406.2,10.9c0-4.4-2-6.6-5.6-6.6c-3.5,0-5.6,2.2-5.6,6.6c0,4.3,2,6.5,5.6,6.5
		C404.1,17.4,406.2,15.2,406.2,10.9z"/>
	<path class="st0" d="M432.3,21.5l-9.9-13.2v13.2h-4.8V0.3h4.4l10,13.3V0.3h4.8v21.1H432.3z"/>
</g>
</svg>
