<?xml version="1.0" encoding="utf-8"?>
<!-- Generator: Adobe Illustrator 27.5.0, SVG Export Plug-In . SVG Version: 6.00 Build 0)  -->
<svg version="1.1" id="Layer_1" xmlns="http://www.w3.org/2000/svg" xmlns:xlink="http://www.w3.org/1999/xlink" x="0px" y="0px"
	 viewBox="0 0 103.6 69.9" style="enable-background:new 0 0 103.6 69.9;" xml:space="preserve">
<style type="text/css">
	.st0{fill:#FFFFFF;}
</style>
<g>
	<polygon class="st0" points="73.9,57.5 73.9,39.8 90.2,39.8 90.2,28.1 73.9,28.1 73.9,11.6 91.8,11.6 91.8,18 103.6,18 103.6,0 
		56.3,0 56.3,11.6 60.7,11.6 60.7,57.5 56.3,57.5 56.3,69.1 78.1,69.1 78.1,57.5 73.9,57.5 	"/>
	<path class="st0" d="M50.1,43V11.6h4.4V0H32.6v11.6h4.3v27.5c0,11.5-1.3,17.1-9.6,17.1s-9.6-5.5-9.6-17.1V11.6h4.2V0H0v11.6h4.3V43
		c0,6.9,0,12.5,3.2,17.5c3.6,5.7,10.2,9.4,19.7,9.4C44.1,69.9,50.1,61.1,50.1,43L50.1,43z"/>
</g>
</svg>
